<?xml version="1.0" standalone="no"?>
 <!DOCTYPE svg PUBLIC "-//W3C//DTD SVG 1.1//EN" 
 "http://www.w3.org/Graphics/SVG/1.1/DTD/svg11.dtd"> 
<svg xmlns="http://www.w3.org/2000/svg" version="1.1" 
    width="29.7002cm" height="21.0007cm" viewBox="0 0 116930 82680 ">
<title>SVG Picture created as sm_2560_maket_board--brd.svg date 2015/03/11 17:19:25 </title>
  <desc>Picture generated by PCBNEW </desc>
<g style="fill:#000000; fill-opacity:1;stroke:#000000; stroke-opacity:1;
stroke-linecap:round; stroke-linejoin:round; "
 transform="translate(0 0) scale(1 1)">
</g>
<g style="fill:#000000; fill-opacity:0.0; 
stroke:#000000; stroke-width:39.3701; stroke-opacity:1; 
stroke-linecap:round; stroke-linejoin:round;">
<path d="M4000 4000
L112930 4000
L112930 78680
L4000 78680
L4000 4000
" />
<path d="M4700 4700
L112230 4700
L112230 77980
L4700 77980
L4700 4700
" />
<path d="M25780 4000
L25780 4700
" />
<path d="M15032 4552
L14747 4552
" />
<path d="M14890 4552
L14890 4052
L14842 4123
L14794 4171
L14747 4195
" />
<path d="M25780 78680
L25780 77980
" />
<path d="M15032 78532
L14747 78532
" />
<path d="M14890 78532
L14890 78032
L14842 78103
L14794 78151
L14747 78175
" />
<path d="M47560 4000
L47560 4700
" />
<path d="M36527 4100
L36550 4076
L36598 4052
L36717 4052
L36765 4076
L36789 4100
L36812 4147
L36812 4195
L36789 4266
L36503 4552
L36812 4552
" />
<path d="M47560 78680
L47560 77980
" />
<path d="M36527 78080
L36550 78056
L36598 78032
L36717 78032
L36765 78056
L36789 78080
L36812 78127
L36812 78175
L36789 78246
L36503 78532
L36812 78532
" />
<path d="M69340 4000
L69340 4700
" />
<path d="M58283 4052
L58592 4052
L58426 4242
L58497 4242
L58545 4266
L58569 4290
L58592 4338
L58592 4457
L58569 4504
L58545 4528
L58497 4552
L58354 4552
L58307 4528
L58283 4504
" />
<path d="M69340 78680
L69340 77980
" />
<path d="M58283 78032
L58592 78032
L58426 78222
L58497 78222
L58545 78246
L58569 78270
L58592 78318
L58592 78437
L58569 78484
L58545 78508
L58497 78532
L58354 78532
L58307 78508
L58283 78484
" />
<path d="M91120 4000
L91120 4700
" />
<path d="M80325 4219
L80325 4552
" />
<path d="M80206 4028
L80087 4385
L80396 4385
" />
<path d="M91120 78680
L91120 77980
" />
<path d="M80325 78199
L80325 78532
" />
<path d="M80206 78008
L80087 78365
L80396 78365
" />
<path d="M102129 4052
L101890 4052
L101867 4290
L101890 4266
L101938 4242
L102057 4242
L102105 4266
L102129 4290
L102152 4338
L102152 4457
L102129 4504
L102105 4528
L102057 4552
L101938 4552
L101890 4528
L101867 4504
" />
<path d="M102129 78032
L101890 78032
L101867 78270
L101890 78246
L101938 78222
L102057 78222
L102105 78246
L102129 78270
L102152 78318
L102152 78437
L102129 78484
L102105 78508
L102057 78532
L101938 78532
L101890 78508
L101867 78484
" />
<path d="M4000 28890
L4700 28890
" />
<path d="M4230 16509
L4469 16509
" />
<path d="M4183 16652
L4350 16152
L4516 16652
" />
<path d="M112930 28890
L112230 28890
" />
<path d="M112460 16509
L112699 16509
" />
<path d="M112413 16652
L112580 16152
L112746 16652
" />
<path d="M4000 53780
L4700 53780
" />
<path d="M4385 41280
L4457 41304
L4480 41328
L4504 41375
L4504 41447
L4480 41494
L4457 41518
L4409 41542
L4219 41542
L4219 41042
L4385 41042
L4433 41066
L4457 41090
L4480 41137
L4480 41185
L4457 41232
L4433 41256
L4385 41280
L4219 41280
" />
<path d="M112930 53780
L112230 53780
" />
<path d="M112615 41280
L112687 41304
L112710 41328
L112734 41375
L112734 41447
L112710 41494
L112687 41518
L112639 41542
L112449 41542
L112449 41042
L112615 41042
L112663 41066
L112687 41090
L112710 41137
L112710 41185
L112687 41232
L112663 41256
L112615 41280
L112449 41280
" />
<path d="M4504 66384
L4480 66408
L4409 66432
L4361 66432
L4290 66408
L4242 66360
L4219 66313
L4195 66218
L4195 66146
L4219 66051
L4242 66003
L4290 65956
L4361 65932
L4409 65932
L4480 65956
L4504 65980
" />
<path d="M112734 66384
L112710 66408
L112639 66432
L112591 66432
L112520 66408
L112472 66360
L112449 66313
L112425 66218
L112425 66146
L112449 66051
L112472 66003
L112520 65956
L112591 65932
L112639 65932
L112710 65956
L112734 65980
" />
<path d="M79380 76422
L79455 75822
L79597 75822
L79680 75851
L79730 75908
L79751 75965
L79765 76080
L79755 76165
L79712 76280
L79676 76337
L79612 76394
L79522 76422
L79380 76422
" />
<path d="M80237 76422
L80276 76108
L80255 76051
L80201 76022
L80087 76022
L80026 76051
" />
<path d="M80240 76394
L80180 76422
L80037 76422
L79983 76394
L79962 76337
L79969 76280
L80005 76222
L80065 76194
L80208 76194
L80269 76165
" />
<path d="M80487 76022
L80715 76022
" />
<path d="M80597 75822
L80533 76337
L80555 76394
L80608 76422
L80665 76422
" />
<path d="M81097 76394
L81037 76422
L80922 76422
L80869 76394
L80847 76337
L80876 76108
L80912 76051
L80972 76022
L81087 76022
L81140 76051
L81162 76108
L81155 76165
L80862 76222
" />
<path d="M81387 76365
L81412 76394
L81380 76422
L81355 76394
L81387 76365
L81380 76422
" />
<path d="M81426 76051
L81451 76080
L81419 76108
L81394 76080
L81426 76051
L81419 76108
" />
<path d="M82437 76422
L82094 76422
" />
<path d="M82265 76422
L82340 75822
L82272 75908
L82208 75965
L82147 75994
" />
<path d="M83008 76422
L82665 76422
" />
<path d="M82837 76422
L82912 75822
L82844 75908
L82780 75965
L82719 75994
" />
<path d="M83722 76422
L83772 76022
" />
<path d="M83765 76080
L83797 76051
L83858 76022
L83944 76022
L83997 76051
L84019 76108
L83980 76422
" />
<path d="M84019 76108
L84055 76051
L84115 76022
L84201 76022
L84255 76051
L84276 76108
L84237 76422
" />
<path d="M84780 76422
L84819 76108
L84797 76051
L84744 76022
L84630 76022
L84569 76051
" />
<path d="M84783 76394
L84722 76422
L84580 76422
L84526 76394
L84505 76337
L84512 76280
L84547 76222
L84608 76194
L84751 76194
L84812 76165
" />
<path d="M85065 76422
L85115 76022
" />
<path d="M85101 76137
L85137 76080
L85169 76051
L85230 76022
L85287 76022
" />
<path d="M85933 75880
L85965 75851
L86026 75822
L86169 75822
L86222 75851
L86247 75880
L86269 75937
L86262 75994
L86222 76080
L85837 76422
L86208 76422
" />
<path d="M86655 75822
L86712 75822
L86765 75851
L86790 75880
L86812 75937
L86826 76051
L86808 76194
L86765 76308
L86730 76365
L86697 76394
L86637 76422
L86580 76422
L86526 76394
L86501 76365
L86480 76308
L86465 76194
L86483 76051
L86526 75937
L86562 75880
L86594 75851
L86655 75822
" />
<path d="M87351 76422
L87008 76422
" />
<path d="M87180 76422
L87255 75822
L87187 75908
L87122 75965
L87062 75994
" />
<path d="M87969 75822
L87683 75822
L87619 76108
L87651 76080
L87712 76051
L87855 76051
L87908 76080
L87933 76108
L87955 76165
L87937 76308
L87901 76365
L87869 76394
L87808 76422
L87665 76422
L87612 76394
L87587 76365
" />
<path d="M70972 77622
L70972 77022
" />
<path d="M71315 77622
L71058 77280
" />
<path d="M71315 77022
L70972 77365
" />
<path d="M71572 77622
L71572 77222
" />
<path d="M71572 77022
L71544 77051
L71572 77080
L71601 77051
L71572 77022
L71572 77080
" />
<path d="M72201 77565
L72172 77594
L72087 77622
L72030 77622
L71944 77594
L71887 77537
L71858 77480
L71830 77365
L71830 77280
L71858 77165
L71887 77108
L71944 77051
L72030 77022
L72087 77022
L72172 77051
L72201 77080
" />
<path d="M72715 77622
L72715 77308
L72687 77251
L72630 77222
L72515 77222
L72458 77251
" />
<path d="M72715 77594
L72658 77622
L72515 77622
L72458 77594
L72430 77537
L72430 77480
L72458 77422
L72515 77394
L72658 77394
L72715 77365
" />
<path d="M73258 77622
L73258 77022
" />
<path d="M73258 77594
L73201 77622
L73087 77622
L73030 77594
L73001 77565
L72972 77508
L72972 77337
L73001 77280
L73030 77251
L73087 77222
L73201 77222
L73258 77251
" />
<path d="M74001 77308
L74201 77308
" />
<path d="M74287 77622
L74001 77622
L74001 77022
L74287 77022
" />
<path d="M74544 77565
L74572 77594
L74544 77622
L74515 77594
L74544 77565
L74544 77622
" />
<path d="M74829 77622
L74829 77022
L74972 77022
L75058 77051
L75115 77108
L75144 77165
L75172 77280
L75172 77365
L75144 77480
L75115 77537
L75058 77594
L74972 77622
L74829 77622
" />
<path d="M75429 77565
L75458 77594
L75429 77622
L75401 77594
L75429 77565
L75429 77622
" />
<path d="M75687 77451
L75972 77451
" />
<path d="M75629 77622
L75829 77022
L76029 77622
" />
<path d="M76229 77565
L76258 77594
L76229 77622
L76201 77594
L76229 77565
L76229 77622
" />
<path d="M104522 76422
L104358 76137
" />
<path d="M104180 76422
L104255 75822
L104483 75822
L104537 75851
L104562 75880
L104583 75937
L104572 76022
L104537 76080
L104505 76108
L104444 76137
L104215 76137
" />
<path d="M105012 76394
L104951 76422
L104837 76422
L104783 76394
L104762 76337
L104790 76108
L104826 76051
L104887 76022
L105001 76022
L105055 76051
L105076 76108
L105069 76165
L104776 76222
" />
<path d="M105287 76022
L105380 76422
L105572 76022
" />
<path d="M105758 76365
L105783 76394
L105751 76422
L105726 76394
L105758 76365
L105751 76422
" />
<path d="M105797 76051
L105822 76080
L105790 76108
L105765 76080
L105797 76051
L105790 76108
" />
<path d="M70944 76394
L71030 76422
L71172 76422
L71230 76394
L71258 76365
L71287 76308
L71287 76251
L71258 76194
L71230 76165
L71172 76137
L71058 76108
L71001 76080
L70972 76051
L70944 75994
L70944 75937
L70972 75880
L71001 75851
L71058 75822
L71201 75822
L71287 75851
" />
<path d="M71544 76422
L71544 76022
" />
<path d="M71544 75822
L71515 75851
L71544 75880
L71572 75851
L71544 75822
L71544 75880
" />
<path d="M71772 76022
L72087 76022
L71772 76422
L72087 76422
" />
<path d="M72544 76394
L72487 76422
L72372 76422
L72315 76394
L72287 76337
L72287 76108
L72315 76051
L72372 76022
L72487 76022
L72544 76051
L72572 76108
L72572 76165
L72287 76222
" />
<path d="M72830 76365
L72858 76394
L72830 76422
L72801 76394
L72830 76365
L72830 76422
" />
<path d="M72830 76051
L72858 76080
L72830 76108
L72801 76080
L72830 76051
L72830 76108
" />
<path d="M73544 76251
L73830 76251
" />
<path d="M73487 76422
L73687 75822
L73887 76422
" />
<path d="M74344 76022
L74344 76422
" />
<path d="M74201 75794
L74058 76222
L74430 76222
" />
<path d="M104172 77622
L104172 77022
" />
<path d="M104715 77622
L104715 77022
" />
<path d="M104715 77594
L104658 77622
L104544 77622
L104487 77594
L104458 77565
L104430 77508
L104430 77337
L104458 77280
L104487 77251
L104544 77222
L104658 77222
L104715 77251
" />
<path d="M105001 77565
L105030 77594
L105001 77622
L104972 77594
L105001 77565
L105001 77622
" />
<path d="M105001 77251
L105030 77280
L105001 77308
L104972 77280
L105001 77251
L105001 77308
" />
<path d="M106058 77622
L105715 77622
" />
<path d="M105887 77622
L105887 77022
L105829 77108
L105772 77165
L105715 77194
" />
<path d="M106744 76994
L106230 77765
" />
<path d="M107258 77622
L106915 77622
" />
<path d="M107087 77622
L107087 77022
L107029 77108
L106972 77165
L106915 77194
" />
<path d="M70969 74622
L71312 74622
" />
<path d="M71065 75222
L71140 74622
" />
<path d="M71437 75222
L71487 74822
" />
<path d="M71512 74622
L71480 74651
L71505 74680
L71537 74651
L71512 74622
L71505 74680
" />
<path d="M71687 74822
L71915 74822
" />
<path d="M71797 74622
L71733 75137
L71755 75194
L71808 75222
L71865 75222
" />
<path d="M72151 75222
L72097 75194
L72076 75137
L72140 74622
" />
<path d="M72612 75194
L72551 75222
L72437 75222
L72383 75194
L72362 75137
L72390 74908
L72426 74851
L72487 74822
L72601 74822
L72655 74851
L72676 74908
L72669 74965
L72376 75022
" />
<path d="M72901 75165
L72926 75194
L72894 75222
L72869 75194
L72901 75165
L72894 75222
" />
<path d="M72940 74851
L72965 74880
L72933 74908
L72908 74880
L72940 74851
L72933 74908
" />
<path d="M71172 72508
L70972 72508
" />
<path d="M70972 72822
L70972 72222
L71258 72222
" />
<path d="M71487 72822
L71487 72422
" />
<path d="M71487 72222
L71458 72251
L71487 72280
L71515 72251
L71487 72222
L71487 72280
" />
<path d="M71858 72822
L71801 72794
L71772 72737
L71772 72222
" />
<path d="M72315 72794
L72258 72822
L72144 72822
L72087 72794
L72058 72737
L72058 72508
L72087 72451
L72144 72422
L72258 72422
L72315 72451
L72344 72508
L72344 72565
L72058 72622
" />
<path d="M72601 72765
L72630 72794
L72601 72822
L72572 72794
L72601 72765
L72601 72822
" />
<path d="M72601 72451
L72630 72480
L72601 72508
L72572 72480
L72601 72451
L72601 72508
" />
<path d="M73315 72794
L73372 72822
L73487 72822
L73544 72794
L73572 72737
L73572 72708
L73544 72651
L73487 72622
L73401 72622
L73344 72594
L73315 72537
L73315 72508
L73344 72451
L73401 72422
L73487 72422
L73544 72451
" />
<path d="M73830 72822
L73830 72422
" />
<path d="M73830 72480
L73858 72451
L73915 72422
L74001 72422
L74058 72451
L74087 72508
L74087 72822
" />
<path d="M74087 72508
L74115 72451
L74172 72422
L74258 72422
L74315 72451
L74344 72508
L74344 72822
" />
<path d="M74487 72880
L74944 72880
" />
<path d="M75058 72280
L75087 72251
L75144 72222
L75287 72222
L75344 72251
L75372 72280
L75401 72337
L75401 72394
L75372 72480
L75030 72822
L75401 72822
" />
<path d="M75944 72222
L75658 72222
L75630 72508
L75658 72480
L75715 72451
L75858 72451
L75915 72480
L75944 72508
L75972 72565
L75972 72708
L75944 72765
L75915 72794
L75858 72822
L75715 72822
L75658 72794
L75630 72765
" />
<path d="M76487 72222
L76372 72222
L76315 72251
L76287 72280
L76230 72365
L76201 72480
L76201 72708
L76230 72765
L76258 72794
L76315 72822
L76430 72822
L76487 72794
L76515 72765
L76544 72708
L76544 72565
L76515 72508
L76487 72480
L76430 72451
L76315 72451
L76258 72480
L76230 72508
L76201 72565
" />
<path d="M76915 72222
L76972 72222
L77030 72251
L77058 72280
L77087 72337
L77115 72451
L77115 72594
L77087 72708
L77058 72765
L77030 72794
L76972 72822
L76915 72822
L76858 72794
L76830 72765
L76801 72708
L76772 72594
L76772 72451
L76801 72337
L76830 72280
L76858 72251
L76915 72222
" />
<path d="M77230 72880
L77687 72880
" />
<path d="M77830 72822
L77830 72422
" />
<path d="M77830 72480
L77858 72451
L77915 72422
L78001 72422
L78058 72451
L78087 72508
L78087 72822
" />
<path d="M78087 72508
L78115 72451
L78172 72422
L78258 72422
L78315 72451
L78344 72508
L78344 72822
" />
<path d="M78887 72822
L78887 72508
L78858 72451
L78801 72422
L78687 72422
L78630 72451
" />
<path d="M78887 72794
L78830 72822
L78687 72822
L78630 72794
L78601 72737
L78601 72680
L78630 72622
L78687 72594
L78830 72594
L78887 72565
" />
<path d="M79172 72822
L79172 72222
" />
<path d="M79230 72594
L79401 72822
" />
<path d="M79401 72422
L79172 72651
" />
<path d="M79887 72794
L79830 72822
L79715 72822
L79658 72794
L79630 72737
L79630 72508
L79658 72451
L79715 72422
L79830 72422
L79887 72451
L79915 72508
L79915 72565
L79630 72622
" />
<path d="M80087 72422
L80315 72422
" />
<path d="M80172 72222
L80172 72737
L80201 72794
L80258 72822
L80315 72822
" />
<path d="M80372 72880
L80830 72880
" />
<path d="M80972 72822
L80972 72222
" />
<path d="M80972 72451
L81030 72422
L81144 72422
L81201 72451
L81230 72480
L81258 72537
L81258 72708
L81230 72765
L81201 72794
L81144 72822
L81030 72822
L80972 72794
" />
<path d="M81601 72822
L81544 72794
L81515 72765
L81487 72708
L81487 72537
L81515 72480
L81544 72451
L81601 72422
L81687 72422
L81744 72451
L81772 72480
L81801 72537
L81801 72708
L81772 72765
L81744 72794
L81687 72822
L81601 72822
" />
<path d="M82315 72822
L82315 72508
L82287 72451
L82230 72422
L82115 72422
L82058 72451
" />
<path d="M82315 72794
L82258 72822
L82115 72822
L82058 72794
L82030 72737
L82030 72680
L82058 72622
L82115 72594
L82258 72594
L82315 72565
" />
<path d="M82601 72822
L82601 72422
" />
<path d="M82601 72537
L82630 72480
L82658 72451
L82715 72422
L82772 72422
" />
<path d="M83230 72822
L83230 72222
" />
<path d="M83230 72794
L83172 72822
L83058 72822
L83001 72794
L82972 72765
L82944 72708
L82944 72537
L82972 72480
L83001 72451
L83058 72422
L83172 72422
L83230 72451
" />
<path d="M83515 72765
L83544 72794
L83515 72822
L83487 72794
L83515 72765
L83515 72822
" />
<path d="M83801 72822
L83801 72222
" />
<path d="M83858 72594
L84030 72822
" />
<path d="M84030 72422
L83801 72651
" />
<path d="M84287 72822
L84287 72422
" />
<path d="M84287 72222
L84258 72251
L84287 72280
L84315 72251
L84287 72222
L84287 72280
" />
<path d="M84830 72794
L84772 72822
L84658 72822
L84601 72794
L84572 72765
L84544 72708
L84544 72537
L84572 72480
L84601 72451
L84658 72422
L84772 72422
L84830 72451
" />
<path d="M85344 72822
L85344 72508
L85315 72451
L85258 72422
L85144 72422
L85087 72451
" />
<path d="M85344 72794
L85287 72822
L85144 72822
L85087 72794
L85058 72737
L85058 72680
L85087 72622
L85144 72594
L85287 72594
L85344 72565
" />
<path d="M85887 72822
L85887 72222
" />
<path d="M85887 72794
L85830 72822
L85715 72822
L85658 72794
L85630 72765
L85601 72708
L85601 72537
L85630 72480
L85658 72451
L85715 72422
L85830 72422
L85887 72451
" />
<path d="M86030 72880
L86487 72880
" />
<path d="M86630 72422
L86630 73022
" />
<path d="M86630 72451
L86687 72422
L86801 72422
L86858 72451
L86887 72480
L86915 72537
L86915 72708
L86887 72765
L86858 72794
L86801 72822
L86687 72822
L86630 72794
" />
<path d="M87430 72794
L87372 72822
L87258 72822
L87201 72794
L87172 72765
L87144 72708
L87144 72537
L87172 72480
L87201 72451
L87258 72422
L87372 72422
L87430 72451
" />
<path d="M87687 72822
L87687 72222
" />
<path d="M87687 72451
L87744 72422
L87858 72422
L87915 72451
L87944 72480
L87972 72537
L87972 72708
L87944 72765
L87915 72794
L87858 72822
L87744 72822
L87687 72794
" />
<path d="M70944 73994
L71030 74022
L71172 74022
L71230 73994
L71258 73965
L71287 73908
L71287 73851
L71258 73794
L71230 73765
L71172 73737
L71058 73708
L71001 73680
L70972 73651
L70944 73594
L70944 73537
L70972 73480
L71001 73451
L71058 73422
L71201 73422
L71287 73451
" />
<path d="M71544 74022
L71544 73422
" />
<path d="M71801 74022
L71801 73708
L71772 73651
L71715 73622
L71630 73622
L71572 73651
L71544 73680
" />
<path d="M72315 73994
L72258 74022
L72144 74022
L72087 73994
L72058 73937
L72058 73708
L72087 73651
L72144 73622
L72258 73622
L72315 73651
L72344 73708
L72344 73765
L72058 73822
" />
<path d="M72830 73994
L72772 74022
L72658 74022
L72601 73994
L72572 73937
L72572 73708
L72601 73651
L72658 73622
L72772 73622
L72830 73651
L72858 73708
L72858 73765
L72572 73822
" />
<path d="M73030 73622
L73258 73622
" />
<path d="M73115 73422
L73115 73937
L73144 73994
L73201 74022
L73258 74022
" />
<path d="M73458 73965
L73487 73994
L73458 74022
L73430 73994
L73458 73965
L73458 74022
" />
<path d="M73458 73651
L73487 73680
L73458 73708
L73430 73680
L73458 73651
L73458 73708
" />
<path d="M70230 71980
L70230 77980
" />
<path d="M70230 71980
L112230 71980
" />
<path d="M70230 71980
L112230 71980
" />
<path d="M70230 74380
L112230 74380
" />
<path d="M103430 75580
L103430 77980
" />
<path d="M70230 76780
L112230 76780
" />
<path d="M70230 75580
L112230 75580
" />
<path d="M76830 75580
L76830 76780
" />
</g>
<g style="fill:#000000; fill-opacity:0.0; 
stroke:#000000; stroke-width:150; stroke-opacity:1; 
stroke-linecap:round; stroke-linejoin:round;">
<path d="M26000 35400
L55200 35400
" />
<path d="M55700 53300
L55700 35900
" />
<path d="M57700 55300
L55700 53300
" />
<path d="M57200 59700
L27000 59700
" />
<path d="M57700 55300
L57700 59200
" />
<path d="M57700 59200
L57200 59700
" />
<path d="M26000 35400
L25500 35900
" />
<path d="M26500 59200
L27000 59700
" />
<path d="M55700 35900
L55200 35400
" />
</g>
<g style="fill:#000000; fill-opacity:0.0; 
stroke:#000000; stroke-width:50; stroke-opacity:1; 
stroke-linecap:round; stroke-linejoin:round;">
<path d="M50047 56285
L50047 56095
" />
<path d="M50161 56323
L49761 56190
L50161 56057
" />
<path d="M49933 55866
L49914 55904
L49895 55923
L49857 55942
L49838 55942
L49800 55923
L49780 55904
L49761 55866
L49761 55790
L49780 55752
L49800 55733
L49838 55714
L49857 55714
L49895 55733
L49914 55752
L49933 55790
L49933 55866
L49952 55904
L49971 55923
L50009 55942
L50085 55942
L50123 55923
L50142 55904
L50161 55866
L50161 55790
L50142 55752
L50123 55733
L50085 55714
L50009 55714
L49971 55733
L49952 55752
L49933 55790
" />
<path d="M51047 56285
L51047 56095
" />
<path d="M51161 56323
L50761 56190
L51161 56057
" />
<path d="M51161 55904
L51161 55828
L51142 55790
L51123 55771
L51066 55733
L50990 55714
L50838 55714
L50800 55733
L50780 55752
L50761 55790
L50761 55866
L50780 55904
L50800 55923
L50838 55942
L50933 55942
L50971 55923
L50990 55904
L51009 55866
L51009 55790
L50990 55752
L50971 55733
L50933 55714
" />
<path d="M54047 56276
L54047 56085
" />
<path d="M54161 56314
L53761 56180
L54161 56047
" />
<path d="M54161 55704
L54161 55933
" />
<path d="M54161 55819
L53761 55819
L53819 55857
L53857 55895
L53876 55933
" />
<path d="M53800 55552
L53780 55533
L53761 55495
L53761 55400
L53780 55361
L53800 55342
L53838 55323
L53876 55323
L53933 55342
L54161 55571
L54161 55323
" />
<path d="M55047 56276
L55047 56085
" />
<path d="M55161 56314
L54761 56180
L55161 56047
" />
<path d="M55161 55704
L55161 55933
" />
<path d="M55161 55819
L54761 55819
L54819 55857
L54857 55895
L54876 55933
" />
<path d="M54761 55571
L54761 55323
L54914 55457
L54914 55400
L54933 55361
L54952 55342
L54990 55323
L55085 55323
L55123 55342
L55142 55361
L55161 55400
L55161 55514
L55142 55552
L55123 55571
" />
<path d="M53047 56276
L53047 56085
" />
<path d="M53161 56314
L52761 56180
L53161 56047
" />
<path d="M53161 55704
L53161 55933
" />
<path d="M53161 55819
L52761 55819
L52819 55857
L52857 55895
L52876 55933
" />
<path d="M53161 55323
L53161 55552
" />
<path d="M53161 55438
L52761 55438
L52819 55476
L52857 55514
L52876 55552
" />
<path d="M52047 56276
L52047 56085
" />
<path d="M52161 56314
L51761 56180
L52161 56047
" />
<path d="M52161 55704
L52161 55933
" />
<path d="M52161 55819
L51761 55819
L51819 55857
L51857 55895
L51876 55933
" />
<path d="M51761 55457
L51761 55419
L51780 55380
L51800 55361
L51838 55342
L51914 55323
L52009 55323
L52085 55342
L52123 55361
L52142 55380
L52161 55419
L52161 55457
L52142 55495
L52123 55514
L52085 55533
L52009 55552
L51914 55552
L51838 55533
L51800 55514
L51780 55495
L51761 55457
" />
<path d="M57147 56276
L57147 56085
" />
<path d="M57261 56314
L56861 56180
L57261 56047
" />
<path d="M57261 55704
L57261 55933
" />
<path d="M57261 55819
L56861 55819
L56919 55857
L56957 55895
L56976 55933
" />
<path d="M56861 55342
L56861 55533
L57052 55552
L57033 55533
L57014 55495
L57014 55400
L57033 55361
L57052 55342
L57090 55323
L57185 55323
L57223 55342
L57242 55361
L57261 55400
L57261 55495
L57242 55533
L57223 55552
" />
<path d="M56147 56276
L56147 56085
" />
<path d="M56261 56314
L55861 56180
L56261 56047
" />
<path d="M56261 55704
L56261 55933
" />
<path d="M56261 55819
L55861 55819
L55919 55857
L55957 55895
L55976 55933
" />
<path d="M55995 55361
L56261 55361
" />
<path d="M55842 55457
L56128 55552
L56128 55304
" />
<path d="M47147 56285
L47147 56095
" />
<path d="M47261 56323
L46861 56190
L47261 56057
" />
<path d="M46861 55752
L46861 55828
L46880 55866
L46900 55885
L46957 55923
L47033 55942
L47185 55942
L47223 55923
L47242 55904
L47261 55866
L47261 55790
L47242 55752
L47223 55733
L47185 55714
L47090 55714
L47052 55733
L47033 55752
L47014 55790
L47014 55866
L47033 55904
L47052 55923
L47090 55942
" />
<path d="M48147 56285
L48147 56095
" />
<path d="M48261 56323
L47861 56190
L48261 56057
" />
<path d="M47861 55961
L47861 55695
L48261 55866
" />
<path d="M55242 40809
L55261 40752
L55261 40657
L55242 40619
L55223 40600
L55185 40580
L55147 40580
L55109 40600
L55090 40619
L55071 40657
L55052 40733
L55033 40771
L55014 40790
L54976 40809
L54938 40809
L54900 40790
L54880 40771
L54861 40733
L54861 40638
L54880 40580
" />
<path d="M55223 40180
L55242 40200
L55261 40257
L55261 40295
L55242 40352
L55204 40390
L55166 40409
L55090 40428
L55033 40428
L54957 40409
L54919 40390
L54880 40352
L54861 40295
L54861 40257
L54880 40200
L54900 40180
" />
<path d="M55261 39819
L55261 40009
L54861 40009
" />
<path d="M54900 39400
L54880 39380
L54861 39342
L54861 39247
L54880 39209
L54900 39190
L54938 39171
L54976 39171
L55033 39190
L55261 39419
L55261 39171
" />
<path d="M55261 38790
L55261 39019
" />
<path d="M55261 38904
L54861 38904
L54919 38942
L54957 38980
L54976 39019
" />
<path d="M54242 40819
L54261 40761
L54261 40666
L54242 40628
L54223 40609
L54185 40590
L54147 40590
L54109 40609
L54090 40628
L54071 40666
L54052 40742
L54033 40780
L54014 40799
L53976 40819
L53938 40819
L53900 40799
L53880 40780
L53861 40742
L53861 40647
L53880 40590
" />
<path d="M54261 40419
L53861 40419
L53861 40323
L53880 40266
L53919 40228
L53957 40209
L54033 40190
L54090 40190
L54166 40209
L54204 40228
L54242 40266
L54261 40323
L54261 40419
" />
<path d="M54147 40038
L54147 39847
" />
<path d="M54261 40076
L53861 39942
L54261 39809
" />
<path d="M53900 39390
L53880 39371
L53861 39333
L53861 39238
L53880 39200
L53900 39180
L53938 39161
L53976 39161
L54033 39180
L54261 39409
L54261 39161
" />
<path d="M53861 38914
L53861 38876
L53880 38838
L53900 38819
L53938 38800
L54014 38780
L54109 38780
L54185 38800
L54223 38819
L54242 38838
L54261 38876
L54261 38914
L54242 38952
L54223 38971
L54185 38990
L54109 39009
L54014 39009
L53938 38990
L53900 38971
L53880 38952
L53861 38914
" />
<path d="M53261 40590
L53071 40723
" />
<path d="M53261 40819
L52861 40819
L52861 40666
L52880 40628
L52900 40609
L52938 40590
L52995 40590
L53033 40609
L53052 40628
L53071 40666
L53071 40819
" />
<path d="M52861 40457
L53261 40190
" />
<path d="M52861 40190
L53261 40457
" />
<path d="M53261 39828
L53261 40057
" />
<path d="M53261 39942
L52861 39942
L52919 39980
L52957 40019
L52976 40057
" />
<path d="M53261 39142
L53261 39371
" />
<path d="M53261 39257
L52861 39257
L52919 39295
L52957 39333
L52976 39371
" />
<path d="M53261 38952
L53261 38876
L53242 38838
L53223 38819
L53166 38780
L53090 38761
L52938 38761
L52900 38780
L52880 38800
L52861 38838
L52861 38914
L52880 38952
L52900 38971
L52938 38990
L53033 38990
L53071 38971
L53090 38952
L53109 38914
L53109 38838
L53090 38800
L53071 38780
L53033 38761
" />
<path d="M51861 40828
L51861 40600
" />
<path d="M52261 40714
L51861 40714
" />
<path d="M51861 40504
L52261 40238
" />
<path d="M51861 40238
L52261 40504
" />
<path d="M52261 39876
L52261 40104
" />
<path d="M52261 39990
L51861 39990
L51919 40028
L51957 40066
L51976 40104
" />
<path d="M52261 39190
L52261 39419
" />
<path d="M52261 39304
L51861 39304
L51919 39342
L51957 39380
L51976 39419
" />
<path d="M52033 38961
L52014 39000
L51995 39019
L51957 39038
L51938 39038
L51900 39019
L51880 39000
L51861 38961
L51861 38885
L51880 38847
L51900 38828
L51938 38809
L51957 38809
L51995 38828
L52014 38847
L52033 38885
L52033 38961
L52052 39000
L52071 39019
L52109 39038
L52185 39038
L52223 39019
L52242 39000
L52261 38961
L52261 38885
L52242 38847
L52223 38828
L52185 38809
L52109 38809
L52071 38828
L52052 38847
L52033 38885
" />
<path d="M47861 40828
L47861 40600
" />
<path d="M48261 40714
L47861 40714
" />
<path d="M47861 40504
L48261 40238
" />
<path d="M47861 40238
L48261 40504
" />
<path d="M47861 40123
L47861 39876
L48014 40009
L48014 39952
L48033 39914
L48052 39895
L48090 39876
L48185 39876
L48223 39895
L48242 39914
L48261 39952
L48261 40066
L48242 40104
L48223 40123
" />
<path d="M48261 39190
L48261 39419
" />
<path d="M48261 39304
L47861 39304
L47919 39342
L47957 39380
L47976 39419
" />
<path d="M47995 38847
L48261 38847
" />
<path d="M47842 38942
L48128 39038
L48128 38790
" />
<path d="M51261 40590
L51071 40723
" />
<path d="M51261 40819
L50861 40819
L50861 40666
L50880 40628
L50900 40609
L50938 40590
L50995 40590
L51033 40609
L51052 40628
L51071 40666
L51071 40819
" />
<path d="M50861 40457
L51261 40190
" />
<path d="M50861 40190
L51261 40457
" />
<path d="M50900 40057
L50880 40038
L50861 39999
L50861 39904
L50880 39866
L50900 39847
L50938 39828
L50976 39828
L51033 39847
L51261 40076
L51261 39828
" />
<path d="M51261 39142
L51261 39371
" />
<path d="M51261 39257
L50861 39257
L50919 39295
L50957 39333
L50976 39371
" />
<path d="M50861 39009
L50861 38742
L51261 38914
" />
<path d="M49861 40828
L49861 40600
" />
<path d="M50261 40714
L49861 40714
" />
<path d="M49861 40504
L50261 40238
" />
<path d="M49861 40238
L50261 40504
" />
<path d="M49900 40104
L49880 40085
L49861 40047
L49861 39952
L49880 39914
L49900 39895
L49938 39876
L49976 39876
L50033 39895
L50261 40123
L50261 39876
" />
<path d="M50261 39190
L50261 39419
" />
<path d="M50261 39304
L49861 39304
L49919 39342
L49957 39380
L49976 39419
" />
<path d="M49861 38847
L49861 38923
L49880 38961
L49900 38980
L49957 39019
L50033 39038
L50185 39038
L50223 39019
L50242 39000
L50261 38961
L50261 38885
L50242 38847
L50223 38828
L50185 38809
L50090 38809
L50052 38828
L50033 38847
L50014 38885
L50014 38961
L50033 39000
L50052 39019
L50090 39038
" />
<path d="M49161 40590
L48971 40723
" />
<path d="M49161 40819
L48761 40819
L48761 40666
L48780 40628
L48800 40609
L48838 40590
L48895 40590
L48933 40609
L48952 40628
L48971 40666
L48971 40819
" />
<path d="M48761 40457
L49161 40190
" />
<path d="M48761 40190
L49161 40457
" />
<path d="M48761 40076
L48761 39828
L48914 39961
L48914 39904
L48933 39866
L48952 39847
L48990 39828
L49085 39828
L49123 39847
L49142 39866
L49161 39904
L49161 40019
L49142 40057
L49123 40076
" />
<path d="M49161 39142
L49161 39371
" />
<path d="M49161 39257
L48761 39257
L48819 39295
L48857 39333
L48876 39371
" />
<path d="M48761 38780
L48761 38971
L48952 38990
L48933 38971
L48914 38933
L48914 38838
L48933 38800
L48952 38780
L48990 38761
L49085 38761
L49123 38780
L49142 38800
L49161 38838
L49161 38933
L49142 38971
L49123 38990
" />
<path d="M39811 38873
L39811 38949
L39830 38988
L39850 39007
L39907 39045
L39983 39064
L40135 39064
L40173 39045
L40192 39026
L40211 38988
L40211 38911
L40192 38873
L40173 38854
L40135 38835
L40040 38835
L40002 38854
L39983 38873
L39964 38911
L39964 38988
L39983 39026
L40002 39045
L40040 39064
" />
<path d="M39735 39140
L39735 38759
" />
</g>
<g style="fill:#000000; fill-opacity:0.0; 
stroke:#000000; stroke-width:150; stroke-opacity:1; 
stroke-linecap:round; stroke-linejoin:round;">
<path d="M25500 45000
L26500 46000
" />
<path d="M26500 46000
L26500 59200
" />
<path d="M25500 35900
L25500 45000
" />
</g>
<g style="fill:#000000; fill-opacity:0.0; 
stroke:#000000; stroke-width:50; stroke-opacity:1; 
stroke-linecap:round; stroke-linejoin:round;">
<path d="M30497 40097
L30497 39907
" />
<path d="M30611 40135
L30211 40002
L30611 39869
" />
<path d="M30611 39507
L30421 39640
" />
<path d="M30611 39735
L30211 39735
L30211 39583
L30230 39545
L30250 39526
L30288 39507
L30345 39507
L30383 39526
L30402 39545
L30421 39583
L30421 39735
" />
<path d="M30402 39335
L30402 39202
" />
<path d="M30611 39145
L30611 39335
L30211 39335
L30211 39145
" />
<path d="M30402 38840
L30402 38973
" />
<path d="M30611 38973
L30211 38973
L30211 38783
" />
<path d="M32711 39226
L32711 39454
" />
<path d="M32711 39340
L32311 39340
L32369 39378
L32407 39416
L32426 39454
" />
<path d="M32311 39092
L32311 38845
L32464 38978
L32464 38921
L32483 38883
L32502 38864
L32540 38845
L32635 38845
L32673 38864
L32692 38883
L32711 38921
L32711 39035
L32692 39073
L32673 39092
" />
<path d="M37483 38988
L37464 39026
L37445 39045
L37407 39064
L37388 39064
L37350 39045
L37330 39026
L37311 38988
L37311 38911
L37330 38873
L37350 38854
L37388 38835
L37407 38835
L37445 38854
L37464 38873
L37483 38911
L37483 38988
L37502 39026
L37521 39045
L37559 39064
L37635 39064
L37673 39045
L37692 39026
L37711 38988
L37711 38911
L37692 38873
L37673 38854
L37635 38835
L37559 38835
L37521 38854
L37502 38873
L37483 38911
" />
<path d="M31330 39654
L31311 39692
L31311 39750
L31330 39807
L31369 39845
L31407 39864
L31483 39883
L31540 39883
L31616 39864
L31654 39845
L31692 39807
L31711 39750
L31711 39711
L31692 39654
L31673 39635
L31540 39635
L31540 39711
" />
<path d="M31711 39464
L31311 39464
L31711 39235
L31311 39235
" />
<path d="M31711 39045
L31311 39045
L31311 38949
L31330 38892
L31369 38854
L31407 38835
L31483 38816
L31540 38816
L31616 38835
L31654 38854
L31692 38892
L31711 38949
L31711 39045
" />
<path d="M40811 38854
L40811 39045
L41002 39064
L40983 39045
L40964 39007
L40964 38911
L40983 38873
L41002 38854
L41040 38835
L41135 38835
L41173 38854
L41192 38873
L41211 38911
L41211 39007
L41192 39045
L41173 39064
" />
<path d="M40735 39140
L40735 38759
" />
<path d="M34611 39226
L34611 39454
" />
<path d="M34611 39340
L34211 39340
L34269 39378
L34307 39416
L34326 39454
" />
<path d="M34611 38845
L34611 39073
" />
<path d="M34611 38959
L34211 38959
L34269 38997
L34307 39035
L34326 39073
" />
<path d="M34135 39530
L34135 38769
" />
<path d="M33611 39226
L33611 39454
" />
<path d="M33611 39340
L33211 39340
L33269 39378
L33307 39416
L33326 39454
" />
<path d="M33250 39073
L33230 39054
L33211 39016
L33211 38921
L33230 38883
L33250 38864
L33288 38845
L33326 38845
L33383 38864
L33611 39092
L33611 38845
" />
<path d="M35611 39226
L35611 39454
" />
<path d="M35611 39340
L35211 39340
L35269 39378
L35307 39416
L35326 39454
" />
<path d="M35211 38978
L35211 38940
L35230 38902
L35250 38883
L35288 38864
L35364 38845
L35459 38845
L35535 38864
L35573 38883
L35592 38902
L35611 38940
L35611 38978
L35592 39016
L35573 39035
L35535 39054
L35459 39073
L35364 39073
L35288 39054
L35250 39035
L35230 39016
L35211 38978
" />
<path d="M35135 39530
L35135 38769
" />
<path d="M36611 39026
L36611 38949
L36592 38911
L36573 38892
L36516 38854
L36440 38835
L36288 38835
L36250 38854
L36230 38873
L36211 38911
L36211 38988
L36230 39026
L36250 39045
L36288 39064
L36383 39064
L36421 39045
L36440 39026
L36459 38988
L36459 38911
L36440 38873
L36421 38854
L36383 38835
" />
<path d="M36135 39140
L36135 38759
" />
<path d="M41945 38873
L42211 38873
" />
<path d="M41792 38969
L42078 39064
L42078 38816
" />
<path d="M38811 39083
L38811 38816
L39211 38988
" />
<path d="M42811 39083
L42811 38835
L42964 38969
L42964 38911
L42983 38873
L43002 38854
L43040 38835
L43135 38835
L43173 38854
L43192 38873
L43211 38911
L43211 39026
L43192 39064
L43173 39083
" />
<path d="M42735 39140
L42735 38759
" />
<path d="M43850 39064
L43830 39045
L43811 39007
L43811 38911
L43830 38873
L43850 38854
L43888 38835
L43926 38835
L43983 38854
L44211 39083
L44211 38835
" />
<path d="M44861 39404
L44861 39176
" />
<path d="M45261 39290
L44861 39290
" />
<path d="M44861 39080
L45261 38814
" />
<path d="M44861 38814
L45261 39080
" />
<path d="M36830 56104
L36811 56142
L36811 56200
L36830 56257
L36869 56295
L36907 56314
L36983 56333
L37040 56333
L37116 56314
L37154 56295
L37192 56257
L37211 56200
L37211 56161
L37192 56104
L37173 56085
L37040 56085
L37040 56161
" />
<path d="M37211 55914
L36811 55914
L37211 55685
L36811 55685
" />
<path d="M37211 55495
L36811 55495
L36811 55399
L36830 55342
L36869 55304
L36907 55285
L36983 55266
L37040 55266
L37116 55285
L37154 55304
L37192 55342
L37211 55399
L37211 55495
" />
<path d="M46261 39166
L46071 39299
" />
<path d="M46261 39395
L45861 39395
L45861 39242
L45880 39204
L45900 39185
L45938 39166
L45995 39166
L46033 39185
L46052 39204
L46071 39242
L46071 39395
" />
<path d="M45861 39033
L46261 38766
" />
<path d="M45861 38766
L46261 39033
" />
<path d="M38811 56209
L39211 56076
L38811 55942
" />
<path d="M39211 55809
L38945 55809
" />
<path d="M38811 55809
L38830 55828
L38850 55809
L38830 55790
L38811 55809
L38850 55809
" />
<path d="M38945 55619
L39211 55619
" />
<path d="M38983 55619
L38964 55599
L38945 55561
L38945 55504
L38964 55466
L39002 55447
L39211 55447
" />
<path d="M35811 55876
L35811 56066
L36002 56085
L35983 56066
L35964 56028
L35964 55933
L35983 55895
L36002 55876
L36040 55857
L36135 55857
L36173 55876
L36192 55895
L36211 55933
L36211 56028
L36192 56066
L36173 56085
" />
<path d="M35811 55742
L36211 55609
L35811 55476
" />
<path d="M37830 56104
L37811 56142
L37811 56200
L37830 56257
L37869 56295
L37907 56314
L37983 56333
L38040 56333
L38116 56314
L38154 56295
L38192 56257
L38211 56200
L38211 56161
L38192 56104
L38173 56085
L38040 56085
L38040 56161
" />
<path d="M38211 55914
L37811 55914
L38211 55685
L37811 55685
" />
<path d="M38211 55495
L37811 55495
L37811 55399
L37830 55342
L37869 55304
L37907 55285
L37983 55266
L38040 55266
L38116 55285
L38154 55304
L38192 55342
L38211 55399
L38211 55495
" />
<path d="M34861 56290
L34861 56042
L35014 56176
L35014 56119
L35033 56080
L35052 56061
L35090 56042
L35185 56042
L35223 56061
L35242 56080
L35261 56119
L35261 56233
L35242 56271
L35223 56290
" />
<path d="M35223 55871
L35242 55852
L35261 55871
L35242 55890
L35223 55871
L35261 55871
" />
<path d="M34861 55719
L34861 55471
L35014 55604
L35014 55547
L35033 55509
L35052 55490
L35090 55471
L35185 55471
L35223 55490
L35242 55509
L35261 55547
L35261 55661
L35242 55699
L35223 55719
" />
<path d="M34861 55357
L35261 55223
L34861 55090
" />
<path d="M43047 56285
L43047 56095
" />
<path d="M43161 56323
L42761 56190
L43161 56057
" />
<path d="M42800 55942
L42780 55923
L42761 55885
L42761 55790
L42780 55752
L42800 55733
L42838 55714
L42876 55714
L42933 55733
L43161 55961
L43161 55714
" />
<path d="M44047 56285
L44047 56095
" />
<path d="M44161 56323
L43761 56190
L44161 56057
" />
<path d="M43761 55961
L43761 55714
L43914 55847
L43914 55790
L43933 55752
L43952 55733
L43990 55714
L44085 55714
L44123 55733
L44142 55752
L44161 55790
L44161 55904
L44142 55942
L44123 55961
" />
<path d="M34211 56019
L34021 56152
" />
<path d="M34211 56247
L33811 56247
L33811 56095
L33830 56057
L33850 56038
L33888 56019
L33945 56019
L33983 56038
L34002 56057
L34021 56095
L34021 56247
" />
<path d="M34192 55866
L34211 55809
L34211 55714
L34192 55676
L34173 55657
L34135 55638
L34097 55638
L34059 55657
L34040 55676
L34021 55714
L34002 55790
L33983 55828
L33964 55847
L33926 55866
L33888 55866
L33850 55847
L33830 55828
L33811 55790
L33811 55695
L33830 55638
" />
<path d="M33811 55523
L33811 55295
" />
<path d="M34211 55409
L33811 55409
" />
<path d="M46047 56285
L46047 56095
" />
<path d="M46161 56323
L45761 56190
L46161 56057
" />
<path d="M45761 55733
L45761 55923
L45952 55942
L45933 55923
L45914 55885
L45914 55790
L45933 55752
L45952 55733
L45990 55714
L46085 55714
L46123 55733
L46142 55752
L46161 55790
L46161 55885
L46142 55923
L46123 55942
" />
<path d="M45047 56285
L45047 56095
" />
<path d="M45161 56323
L44761 56190
L45161 56057
" />
<path d="M44895 55752
L45161 55752
" />
<path d="M44742 55847
L45028 55942
L45028 55695
" />
<path d="M42047 56285
L42047 56095
" />
<path d="M42161 56323
L41761 56190
L42161 56057
" />
<path d="M42161 55714
L42161 55942
" />
<path d="M42161 55828
L41761 55828
L41819 55866
L41857 55904
L41876 55942
" />
<path d="M41047 56285
L41047 56095
" />
<path d="M41161 56323
L40761 56190
L41161 56057
" />
<path d="M40761 55847
L40761 55809
L40780 55771
L40800 55752
L40838 55733
L40914 55714
L41009 55714
L41085 55733
L41123 55752
L41142 55771
L41161 55809
L41161 55847
L41142 55885
L41123 55904
L41085 55923
L41009 55942
L40914 55942
L40838 55923
L40800 55904
L40780 55885
L40761 55847
" />
</g>
<g style="fill:#000000; fill-opacity:0.0; 
stroke:#000000; stroke-width:80; stroke-opacity:1; 
stroke-linecap:round; stroke-linejoin:round;">
<path d="M28695 54142
L28752 54161
L28847 54161
L28885 54142
L28904 54123
L28923 54085
L28923 54047
L28904 54009
L28885 53990
L28847 53971
L28771 53952
L28733 53933
L28714 53914
L28695 53876
L28695 53838
L28714 53800
L28733 53780
L28771 53761
L28866 53761
L28923 53780
" />
<path d="M29304 54161
L29076 54161
" />
<path d="M29190 54161
L29190 53761
L29152 53819
L29114 53857
L29076 53876
" />
</g>
<g style="fill:#000000; fill-opacity:0.0; 
stroke:#000000; stroke-width:120; stroke-opacity:1; 
stroke-linecap:round; stroke-linejoin:round;">
<path d="M39550 58550
L31550 58550
" />
<path d="M31550 58550
L31550 57550
" />
<path d="M31550 57550
L39550 57550
" />
<path d="M39550 57550
L39550 58550
" />
<path d="M38550 57550
L38550 58550
" />
<path d="M48550 58550
L40550 58550
" />
<path d="M40550 58550
L40550 57550
" />
<path d="M40550 57550
L48550 57550
" />
<path d="M48550 57550
L48550 58550
" />
<path d="M47550 57550
L47550 58550
" />
<path d="M57550 58550
L49550 58550
" />
<path d="M49550 58550
L49550 57550
" />
<path d="M49550 57550
L57550 57550
" />
<path d="M57550 57550
L57550 58550
" />
<path d="M56550 57550
L56550 58550
" />
<path d="M46550 37550
L38550 37550
" />
<path d="M38550 37550
L38550 36550
" />
<path d="M38550 36550
L46550 36550
" />
<path d="M46550 36550
L46550 37550
" />
<path d="M45550 36550
L45550 37550
" />
<path d="M37950 37550
L29950 37550
" />
<path d="M29950 37550
L29950 36550
" />
<path d="M29950 36550
L37950 36550
" />
<path d="M37950 36550
L37950 37550
" />
<path d="M36950 36550
L36950 37550
" />
<path d="M55550 37550
L47550 37550
" />
<path d="M47550 37550
L47550 36550
" />
<path d="M47550 36550
L55550 36550
" />
<path d="M55550 36550
L55550 37550
" />
<path d="M54550 36550
L54550 37550
" />
<path d="M57550 57550
L49550 57550
" />
<path d="M49550 57550
L49550 56550
" />
<path d="M49550 56550
L57550 56550
" />
<path d="M57550 56550
L57550 57550
" />
<path d="M56550 56550
L56550 57550
" />
<path d="M48550 57550
L40550 57550
" />
<path d="M40550 57550
L40550 56550
" />
<path d="M40550 56550
L48550 56550
" />
<path d="M48550 56550
L48550 57550
" />
<path d="M47550 56550
L47550 57550
" />
<path d="M39550 57550
L31550 57550
" />
<path d="M31550 57550
L31550 56550
" />
<path d="M31550 56550
L39550 56550
" />
<path d="M39550 56550
L39550 57550
" />
<path d="M38550 56550
L38550 57550
" />
<path d="M55550 38550
L47550 38550
" />
<path d="M47550 38550
L47550 37550
" />
<path d="M47550 37550
L55550 37550
" />
<path d="M55550 37550
L55550 38550
" />
<path d="M54550 37550
L54550 38550
" />
<path d="M37950 38550
L29950 38550
" />
<path d="M29950 38550
L29950 37550
" />
<path d="M29950 37550
L37950 37550
" />
<path d="M37950 37550
L37950 38550
" />
<path d="M36950 37550
L36950 38550
" />
<path d="M46550 38550
L38550 38550
" />
<path d="M38550 38550
L38550 37550
" />
<path d="M38550 37550
L46550 37550
" />
<path d="M46550 37550
L46550 38550
" />
<path d="M45550 37550
L45550 38550
" />
</g>
<g style="fill:#000000; fill-opacity:0.0; 
stroke:#000000; stroke-width:50; stroke-opacity:1; 
stroke-linecap:round; stroke-linejoin:round;">
<path d="M30500 58450
L30500 54550
" />
<path d="M27500 58450
L27500 54550
" />
<circle cx="29000" cy="56500" r="1000" /> 
<path d="M27500 54550
L30500 54550
" />
<path d="M27500 58450
L30500 58450
" />
</g>
<g style="fill:#000000; fill-opacity:0.0; 
stroke:#000000; stroke-width:39.3701; stroke-opacity:1; 
stroke-linecap:round; stroke-linejoin:round;">
</g>
<g style="fill:#000000; fill-opacity:1.0; 
stroke:#000000; stroke-width:39.3701; stroke-opacity:1; 
stroke-linecap:round; stroke-linejoin:round;">
<circle cx="28000" cy="53000" r="395.276" /> 
<circle cx="29000" cy="53000" r="395.276" /> 
<circle cx="30000" cy="53000" r="395.276" /> 
<circle cx="31000" cy="53000" r="395.276" /> 
<circle cx="41000" cy="53000" r="395.276" /> 
<circle cx="42000" cy="53000" r="395.276" /> 
<circle cx="43000" cy="53000" r="395.276" /> 
<circle cx="40000" cy="53000" r="395.276" /> 
<circle cx="39000" cy="53000" r="395.276" /> 
<circle cx="38000" cy="53000" r="395.276" /> 
<circle cx="32000" cy="53000" r="395.276" /> 
<circle cx="33000" cy="53000" r="395.276" /> 
<circle cx="34000" cy="53000" r="395.276" /> 
<circle cx="37000" cy="53000" r="395.276" /> 
<circle cx="36000" cy="53000" r="395.276" /> 
<circle cx="35000" cy="53000" r="395.276" /> 
<circle cx="46000" cy="53000" r="395.276" /> 
<circle cx="45000" cy="53000" r="395.276" /> 
<circle cx="44000" cy="53000" r="395.276" /> 
<circle cx="46000" cy="42000" r="395.276" /> 
<circle cx="28000" cy="42000" r="395.276" /> 
<circle cx="29000" cy="42000" r="395.276" /> 
<circle cx="30000" cy="42000" r="395.276" /> 
<circle cx="31000" cy="42000" r="395.276" /> 
<circle cx="41000" cy="42000" r="395.276" /> 
<circle cx="42000" cy="42000" r="395.276" /> 
<circle cx="43000" cy="42000" r="395.276" /> 
<circle cx="40000" cy="42000" r="395.276" /> 
<circle cx="39000" cy="42000" r="395.276" /> 
<circle cx="38000" cy="42000" r="395.276" /> 
<circle cx="32000" cy="42000" r="395.276" /> 
<circle cx="33000" cy="42000" r="395.276" /> 
<circle cx="34000" cy="42000" r="395.276" /> 
<circle cx="37000" cy="42000" r="395.276" /> 
<circle cx="36000" cy="42000" r="395.276" /> 
<circle cx="35000" cy="42000" r="395.276" /> 
<circle cx="45000" cy="42000" r="395.276" /> 
<circle cx="44000" cy="42000" r="395.276" /> 
<circle cx="53000" cy="43000" r="395.276" /> 
<circle cx="54000" cy="43000" r="395.276" /> 
<circle cx="55000" cy="43000" r="395.276" /> 
<circle cx="52000" cy="43000" r="395.276" /> 
<circle cx="51000" cy="43000" r="395.276" /> 
<circle cx="50000" cy="43000" r="395.276" /> 
<circle cx="49000" cy="43000" r="395.276" /> 
<circle cx="53000" cy="45000" r="395.276" /> 
<circle cx="54000" cy="45000" r="395.276" /> 
<circle cx="55000" cy="45000" r="395.276" /> 
<circle cx="52000" cy="45000" r="395.276" /> 
<circle cx="51000" cy="45000" r="395.276" /> 
<circle cx="50000" cy="45000" r="395.276" /> 
<circle cx="49000" cy="45000" r="395.276" /> 
<circle cx="49000" cy="44000" r="395.276" /> 
<circle cx="50000" cy="44000" r="395.276" /> 
<circle cx="51000" cy="44000" r="395.276" /> 
<circle cx="52000" cy="44000" r="395.276" /> 
<circle cx="55000" cy="44000" r="395.276" /> 
<circle cx="54000" cy="44000" r="395.276" /> 
<circle cx="53000" cy="44000" r="395.276" /> 
<circle cx="28000" cy="44000" r="395.276" /> 
<circle cx="29000" cy="44000" r="395.276" /> 
<circle cx="30000" cy="44000" r="395.276" /> 
<circle cx="31000" cy="44000" r="395.276" /> 
<circle cx="41000" cy="44000" r="395.276" /> 
<circle cx="42000" cy="44000" r="395.276" /> 
<circle cx="43000" cy="44000" r="395.276" /> 
<circle cx="40000" cy="44000" r="395.276" /> 
<circle cx="39000" cy="44000" r="395.276" /> 
<circle cx="38000" cy="44000" r="395.276" /> 
<circle cx="32000" cy="44000" r="395.276" /> 
<circle cx="33000" cy="44000" r="395.276" /> 
<circle cx="34000" cy="44000" r="395.276" /> 
<circle cx="37000" cy="44000" r="395.276" /> 
<circle cx="36000" cy="44000" r="395.276" /> 
<circle cx="35000" cy="44000" r="395.276" /> 
<circle cx="45000" cy="44000" r="395.276" /> 
<circle cx="44000" cy="44000" r="395.276" /> 
<circle cx="44000" cy="43000" r="395.276" /> 
<circle cx="45000" cy="43000" r="395.276" /> 
<circle cx="35000" cy="43000" r="395.276" /> 
<circle cx="36000" cy="43000" r="395.276" /> 
<circle cx="37000" cy="43000" r="395.276" /> 
<circle cx="34000" cy="43000" r="395.276" /> 
<circle cx="33000" cy="43000" r="395.276" /> 
<circle cx="32000" cy="43000" r="395.276" /> 
<circle cx="38000" cy="43000" r="395.276" /> 
<circle cx="39000" cy="43000" r="395.276" /> 
<circle cx="40000" cy="43000" r="395.276" /> 
<circle cx="43000" cy="43000" r="395.276" /> 
<circle cx="42000" cy="43000" r="395.276" /> 
<circle cx="41000" cy="43000" r="395.276" /> 
<circle cx="31000" cy="43000" r="395.276" /> 
<circle cx="30000" cy="43000" r="395.276" /> 
<circle cx="29000" cy="43000" r="395.276" /> 
<circle cx="28000" cy="43000" r="395.276" /> 
<circle cx="28000" cy="45000" r="395.276" /> 
<circle cx="29000" cy="45000" r="395.276" /> 
<circle cx="30000" cy="45000" r="395.276" /> 
<circle cx="31000" cy="45000" r="395.276" /> 
<circle cx="41000" cy="45000" r="395.276" /> 
<circle cx="42000" cy="45000" r="395.276" /> 
<circle cx="43000" cy="45000" r="395.276" /> 
<circle cx="40000" cy="45000" r="395.276" /> 
<circle cx="39000" cy="45000" r="395.276" /> 
<circle cx="38000" cy="45000" r="395.276" /> 
<circle cx="32000" cy="45000" r="395.276" /> 
<circle cx="33000" cy="45000" r="395.276" /> 
<circle cx="34000" cy="45000" r="395.276" /> 
<circle cx="37000" cy="45000" r="395.276" /> 
<circle cx="36000" cy="45000" r="395.276" /> 
<circle cx="35000" cy="45000" r="395.276" /> 
<circle cx="45000" cy="45000" r="395.276" /> 
<circle cx="44000" cy="45000" r="395.276" /> 
<circle cx="53000" cy="49000" r="395.276" /> 
<circle cx="54000" cy="49000" r="395.276" /> 
<circle cx="55000" cy="49000" r="395.276" /> 
<circle cx="52000" cy="49000" r="395.276" /> 
<circle cx="51000" cy="49000" r="395.276" /> 
<circle cx="50000" cy="49000" r="395.276" /> 
<circle cx="44000" cy="49000" r="395.276" /> 
<circle cx="45000" cy="49000" r="395.276" /> 
<circle cx="46000" cy="49000" r="395.276" /> 
<circle cx="49000" cy="49000" r="395.276" /> 
<circle cx="48000" cy="49000" r="395.276" /> 
<circle cx="47000" cy="49000" r="395.276" /> 
<circle cx="35000" cy="49000" r="395.276" /> 
<circle cx="36000" cy="49000" r="395.276" /> 
<circle cx="37000" cy="49000" r="395.276" /> 
<circle cx="34000" cy="49000" r="395.276" /> 
<circle cx="33000" cy="49000" r="395.276" /> 
<circle cx="32000" cy="49000" r="395.276" /> 
<circle cx="38000" cy="49000" r="395.276" /> 
<circle cx="39000" cy="49000" r="395.276" /> 
<circle cx="40000" cy="49000" r="395.276" /> 
<circle cx="43000" cy="49000" r="395.276" /> 
<circle cx="42000" cy="49000" r="395.276" /> 
<circle cx="41000" cy="49000" r="395.276" /> 
<circle cx="31000" cy="49000" r="395.276" /> 
<circle cx="30000" cy="49000" r="395.276" /> 
<circle cx="29000" cy="49000" r="395.276" /> 
<circle cx="28000" cy="49000" r="395.276" /> 
<circle cx="28000" cy="48000" r="395.276" /> 
<circle cx="29000" cy="48000" r="395.276" /> 
<circle cx="30000" cy="48000" r="395.276" /> 
<circle cx="31000" cy="48000" r="395.276" /> 
<circle cx="41000" cy="48000" r="395.276" /> 
<circle cx="42000" cy="48000" r="395.276" /> 
<circle cx="43000" cy="48000" r="395.276" /> 
<circle cx="40000" cy="48000" r="395.276" /> 
<circle cx="39000" cy="48000" r="395.276" /> 
<circle cx="38000" cy="48000" r="395.276" /> 
<circle cx="32000" cy="48000" r="395.276" /> 
<circle cx="33000" cy="48000" r="395.276" /> 
<circle cx="34000" cy="48000" r="395.276" /> 
<circle cx="37000" cy="48000" r="395.276" /> 
<circle cx="36000" cy="48000" r="395.276" /> 
<circle cx="35000" cy="48000" r="395.276" /> 
<circle cx="47000" cy="48000" r="395.276" /> 
<circle cx="48000" cy="48000" r="395.276" /> 
<circle cx="49000" cy="48000" r="395.276" /> 
<circle cx="46000" cy="48000" r="395.276" /> 
<circle cx="45000" cy="48000" r="395.276" /> 
<circle cx="44000" cy="48000" r="395.276" /> 
<circle cx="50000" cy="48000" r="395.276" /> 
<circle cx="51000" cy="48000" r="395.276" /> 
<circle cx="52000" cy="48000" r="395.276" /> 
<circle cx="55000" cy="48000" r="395.276" /> 
<circle cx="54000" cy="48000" r="395.276" /> 
<circle cx="53000" cy="48000" r="395.276" /> 
<circle cx="53000" cy="46000" r="395.276" /> 
<circle cx="54000" cy="46000" r="395.276" /> 
<circle cx="55000" cy="46000" r="395.276" /> 
<circle cx="52000" cy="46000" r="395.276" /> 
<circle cx="51000" cy="46000" r="395.276" /> 
<circle cx="50000" cy="46000" r="395.276" /> 
<circle cx="44000" cy="46000" r="395.276" /> 
<circle cx="45000" cy="46000" r="395.276" /> 
<circle cx="46000" cy="46000" r="395.276" /> 
<circle cx="49000" cy="46000" r="395.276" /> 
<circle cx="48000" cy="46000" r="395.276" /> 
<circle cx="47000" cy="46000" r="395.276" /> 
<circle cx="35000" cy="46000" r="395.276" /> 
<circle cx="36000" cy="46000" r="395.276" /> 
<circle cx="37000" cy="46000" r="395.276" /> 
<circle cx="34000" cy="46000" r="395.276" /> 
<circle cx="33000" cy="46000" r="395.276" /> 
<circle cx="32000" cy="46000" r="395.276" /> 
<circle cx="38000" cy="46000" r="395.276" /> 
<circle cx="39000" cy="46000" r="395.276" /> 
<circle cx="40000" cy="46000" r="395.276" /> 
<circle cx="43000" cy="46000" r="395.276" /> 
<circle cx="42000" cy="46000" r="395.276" /> 
<circle cx="41000" cy="46000" r="395.276" /> 
<circle cx="31000" cy="46000" r="395.276" /> 
<circle cx="30000" cy="46000" r="395.276" /> 
<circle cx="29000" cy="46000" r="395.276" /> 
<circle cx="28000" cy="46000" r="395.276" /> 
<circle cx="28000" cy="47000" r="395.276" /> 
<circle cx="29000" cy="47000" r="395.276" /> 
<circle cx="30000" cy="47000" r="395.276" /> 
<circle cx="31000" cy="47000" r="395.276" /> 
<circle cx="41000" cy="47000" r="395.276" /> 
<circle cx="42000" cy="47000" r="395.276" /> 
<circle cx="43000" cy="47000" r="395.276" /> 
<circle cx="40000" cy="47000" r="395.276" /> 
<circle cx="39000" cy="47000" r="395.276" /> 
<circle cx="38000" cy="47000" r="395.276" /> 
<circle cx="32000" cy="47000" r="395.276" /> 
<circle cx="33000" cy="47000" r="395.276" /> 
<circle cx="34000" cy="47000" r="395.276" /> 
<circle cx="37000" cy="47000" r="395.276" /> 
<circle cx="36000" cy="47000" r="395.276" /> 
<circle cx="35000" cy="47000" r="395.276" /> 
<circle cx="47000" cy="47000" r="395.276" /> 
<circle cx="48000" cy="47000" r="395.276" /> 
<circle cx="49000" cy="47000" r="395.276" /> 
<circle cx="46000" cy="47000" r="395.276" /> 
<circle cx="45000" cy="47000" r="395.276" /> 
<circle cx="44000" cy="47000" r="395.276" /> 
<circle cx="50000" cy="47000" r="395.276" /> 
<circle cx="51000" cy="47000" r="395.276" /> 
<circle cx="52000" cy="47000" r="395.276" /> 
<circle cx="55000" cy="47000" r="395.276" /> 
<circle cx="54000" cy="47000" r="395.276" /> 
<circle cx="53000" cy="47000" r="395.276" /> 
<circle cx="53000" cy="51000" r="395.276" /> 
<circle cx="54000" cy="51000" r="395.276" /> 
<circle cx="55000" cy="51000" r="395.276" /> 
<circle cx="52000" cy="51000" r="395.276" /> 
<circle cx="51000" cy="51000" r="395.276" /> 
<circle cx="50000" cy="51000" r="395.276" /> 
<circle cx="44000" cy="51000" r="395.276" /> 
<circle cx="45000" cy="51000" r="395.276" /> 
<circle cx="46000" cy="51000" r="395.276" /> 
<circle cx="49000" cy="51000" r="395.276" /> 
<circle cx="48000" cy="51000" r="395.276" /> 
<circle cx="47000" cy="51000" r="395.276" /> 
<circle cx="35000" cy="51000" r="395.276" /> 
<circle cx="36000" cy="51000" r="395.276" /> 
<circle cx="37000" cy="51000" r="395.276" /> 
<circle cx="34000" cy="51000" r="395.276" /> 
<circle cx="33000" cy="51000" r="395.276" /> 
<circle cx="32000" cy="51000" r="395.276" /> 
<circle cx="38000" cy="51000" r="395.276" /> 
<circle cx="39000" cy="51000" r="395.276" /> 
<circle cx="40000" cy="51000" r="395.276" /> 
<circle cx="43000" cy="51000" r="395.276" /> 
<circle cx="42000" cy="51000" r="395.276" /> 
<circle cx="41000" cy="51000" r="395.276" /> 
<circle cx="31000" cy="51000" r="395.276" /> 
<circle cx="30000" cy="51000" r="395.276" /> 
<circle cx="29000" cy="51000" r="395.276" /> 
<circle cx="28000" cy="51000" r="395.276" /> 
<circle cx="28000" cy="50000" r="395.276" /> 
<circle cx="29000" cy="50000" r="395.276" /> 
<circle cx="30000" cy="50000" r="395.276" /> 
<circle cx="31000" cy="50000" r="395.276" /> 
<circle cx="41000" cy="50000" r="395.276" /> 
<circle cx="42000" cy="50000" r="395.276" /> 
<circle cx="43000" cy="50000" r="395.276" /> 
<circle cx="40000" cy="50000" r="395.276" /> 
<circle cx="39000" cy="50000" r="395.276" /> 
<circle cx="38000" cy="50000" r="395.276" /> 
<circle cx="32000" cy="50000" r="395.276" /> 
<circle cx="33000" cy="50000" r="395.276" /> 
<circle cx="34000" cy="50000" r="395.276" /> 
<circle cx="37000" cy="50000" r="395.276" /> 
<circle cx="36000" cy="50000" r="395.276" /> 
<circle cx="35000" cy="50000" r="395.276" /> 
<circle cx="47000" cy="50000" r="395.276" /> 
<circle cx="48000" cy="50000" r="395.276" /> 
<circle cx="49000" cy="50000" r="395.276" /> 
<circle cx="46000" cy="50000" r="395.276" /> 
<circle cx="45000" cy="50000" r="395.276" /> 
<circle cx="44000" cy="50000" r="395.276" /> 
<circle cx="50000" cy="50000" r="395.276" /> 
<circle cx="51000" cy="50000" r="395.276" /> 
<circle cx="52000" cy="50000" r="395.276" /> 
<circle cx="55000" cy="50000" r="395.276" /> 
<circle cx="54000" cy="50000" r="395.276" /> 
<circle cx="53000" cy="50000" r="395.276" /> 
<circle cx="53000" cy="52000" r="395.276" /> 
<circle cx="54000" cy="52000" r="395.276" /> 
<circle cx="55000" cy="52000" r="395.276" /> 
<circle cx="52000" cy="52000" r="395.276" /> 
<circle cx="51000" cy="52000" r="395.276" /> 
<circle cx="50000" cy="52000" r="395.276" /> 
<circle cx="44000" cy="52000" r="395.276" /> 
<circle cx="45000" cy="52000" r="395.276" /> 
<circle cx="46000" cy="52000" r="395.276" /> 
<circle cx="49000" cy="52000" r="395.276" /> 
<circle cx="48000" cy="52000" r="395.276" /> 
<circle cx="47000" cy="52000" r="395.276" /> 
<circle cx="35000" cy="52000" r="395.276" /> 
<circle cx="36000" cy="52000" r="395.276" /> 
<circle cx="37000" cy="52000" r="395.276" /> 
<circle cx="34000" cy="52000" r="395.276" /> 
<circle cx="33000" cy="52000" r="395.276" /> 
<circle cx="32000" cy="52000" r="395.276" /> 
<circle cx="38000" cy="52000" r="395.276" /> 
<circle cx="39000" cy="52000" r="395.276" /> 
<circle cx="40000" cy="52000" r="395.276" /> 
<circle cx="43000" cy="52000" r="395.276" /> 
<circle cx="42000" cy="52000" r="395.276" /> 
<circle cx="41000" cy="52000" r="395.276" /> 
<circle cx="31000" cy="52000" r="395.276" /> 
<circle cx="30000" cy="52000" r="395.276" /> 
<circle cx="29000" cy="52000" r="395.276" /> 
<circle cx="28000" cy="52000" r="395.276" /> 
<circle cx="30000" cy="41000" r="395.276" /> 
<circle cx="55000" cy="42000" r="395.276" /> 
<circle cx="54000" cy="42000" r="395.276" /> 
<circle cx="52000" cy="42000" r="395.276" /> 
<circle cx="53000" cy="42000" r="395.276" /> 
<circle cx="49000" cy="42000" r="395.276" /> 
<circle cx="48000" cy="42000" r="395.276" /> 
<circle cx="50000" cy="42000" r="395.276" /> 
<circle cx="51000" cy="42000" r="395.276" /> 
<circle cx="42000" cy="41000" r="395.276" /> 
<circle cx="41000" cy="41000" r="395.276" /> 
<circle cx="39000" cy="41000" r="395.276" /> 
<circle cx="40000" cy="41000" r="395.276" /> 
<circle cx="44000" cy="41000" r="395.276" /> 
<circle cx="43000" cy="41000" r="395.276" /> 
<circle cx="45000" cy="41000" r="395.276" /> 
<circle cx="46000" cy="41000" r="395.276" /> 
<circle cx="37000" cy="41000" r="395.276" /> 
<circle cx="36000" cy="41000" r="395.276" /> 
<circle cx="34000" cy="41000" r="395.276" /> 
<circle cx="35000" cy="41000" r="395.276" /> 
<circle cx="31000" cy="41000" r="395.276" /> 
<circle cx="32000" cy="41000" r="395.276" /> 
<circle cx="33000" cy="41000" r="395.276" /> 
<circle cx="33000" cy="54000" r="395.276" /> 
<circle cx="32000" cy="54000" r="395.276" /> 
<circle cx="35000" cy="54000" r="395.276" /> 
<circle cx="34000" cy="54000" r="395.276" /> 
<circle cx="36000" cy="54000" r="395.276" /> 
<circle cx="37000" cy="54000" r="395.276" /> 
<circle cx="45500" cy="54000" r="395.276" /> 
<circle cx="44500" cy="54000" r="395.276" /> 
<circle cx="42500" cy="54000" r="395.276" /> 
<circle cx="43500" cy="54000" r="395.276" /> 
<circle cx="39500" cy="54000" r="395.276" /> 
<circle cx="38500" cy="54000" r="395.276" /> 
<circle cx="40500" cy="54000" r="395.276" /> 
<circle cx="41500" cy="54000" r="395.276" /> 
<circle cx="51000" cy="53000" r="395.276" /> 
<circle cx="50000" cy="53000" r="395.276" /> 
<circle cx="48000" cy="53000" r="395.276" /> 
<circle cx="49000" cy="53000" r="395.276" /> 
<circle cx="53000" cy="53000" r="395.276" /> 
<circle cx="52000" cy="53000" r="395.276" /> 
<circle cx="54000" cy="53000" r="395.276" /> 
<circle cx="55000" cy="53000" r="395.276" /> 
<circle cx="47050" cy="44050" r="710.236" /> 
<polyline style="fill-rule:evenodd;"
points="39445,57654
39445,58445
38654,58445
38654,57654
39445,57654
" /> 
<circle cx="38050" cy="58050" r="395.315" /> 
<circle cx="37050" cy="58050" r="395.315" /> 
<circle cx="36050" cy="58050" r="395.315" /> 
<circle cx="35050" cy="58050" r="395.315" /> 
<circle cx="34050" cy="58050" r="395.315" /> 
<circle cx="33050" cy="58050" r="395.315" /> 
<circle cx="32050" cy="58050" r="395.315" /> 
<polyline style="fill-rule:evenodd;"
points="48445,57654
48445,58445
47654,58445
47654,57654
48445,57654
" /> 
<circle cx="47050" cy="58050" r="395.315" /> 
<circle cx="46050" cy="58050" r="395.315" /> 
<circle cx="45050" cy="58050" r="395.315" /> 
<circle cx="44050" cy="58050" r="395.315" /> 
<circle cx="43050" cy="58050" r="395.315" /> 
<circle cx="42050" cy="58050" r="395.315" /> 
<circle cx="41050" cy="58050" r="395.315" /> 
<polyline style="fill-rule:evenodd;"
points="57445,57654
57445,58445
56654,58445
56654,57654
57445,57654
" /> 
<circle cx="56050" cy="58050" r="395.315" /> 
<circle cx="55050" cy="58050" r="395.315" /> 
<circle cx="54050" cy="58050" r="395.315" /> 
<circle cx="53050" cy="58050" r="395.315" /> 
<circle cx="52050" cy="58050" r="395.315" /> 
<circle cx="51050" cy="58050" r="395.315" /> 
<circle cx="50050" cy="58050" r="395.315" /> 
<polyline style="fill-rule:evenodd;"
points="46445,36654
46445,37445
45654,37445
45654,36654
46445,36654
" /> 
<circle cx="45050" cy="37050" r="395.315" /> 
<circle cx="44050" cy="37050" r="395.315" /> 
<circle cx="43050" cy="37050" r="395.315" /> 
<circle cx="42050" cy="37050" r="395.315" /> 
<circle cx="41050" cy="37050" r="395.315" /> 
<circle cx="40050" cy="37050" r="395.315" /> 
<circle cx="39050" cy="37050" r="395.315" /> 
<polyline style="fill-rule:evenodd;"
points="37845,36654
37845,37445
37054,37445
37054,36654
37845,36654
" /> 
<circle cx="36450" cy="37050" r="395.315" /> 
<circle cx="35450" cy="37050" r="395.315" /> 
<circle cx="34450" cy="37050" r="395.315" /> 
<circle cx="33450" cy="37050" r="395.315" /> 
<circle cx="32450" cy="37050" r="395.315" /> 
<circle cx="31450" cy="37050" r="395.315" /> 
<circle cx="30450" cy="37050" r="395.315" /> 
<polyline style="fill-rule:evenodd;"
points="55445,36654
55445,37445
54654,37445
54654,36654
55445,36654
" /> 
<circle cx="54050" cy="37050" r="395.315" /> 
<circle cx="53050" cy="37050" r="395.315" /> 
<circle cx="52050" cy="37050" r="395.315" /> 
<circle cx="51050" cy="37050" r="395.315" /> 
<circle cx="50050" cy="37050" r="395.315" /> 
<circle cx="49050" cy="37050" r="395.315" /> 
<circle cx="48050" cy="37050" r="395.315" /> 
<polyline style="fill-rule:evenodd;"
points="57445,56654
57445,57445
56654,57445
56654,56654
57445,56654
" /> 
<circle cx="56050" cy="57050" r="395.315" /> 
<circle cx="55050" cy="57050" r="395.315" /> 
<circle cx="54050" cy="57050" r="395.315" /> 
<circle cx="53050" cy="57050" r="395.315" /> 
<circle cx="52050" cy="57050" r="395.315" /> 
<circle cx="51050" cy="57050" r="395.315" /> 
<circle cx="50050" cy="57050" r="395.315" /> 
<polyline style="fill-rule:evenodd;"
points="48445,56654
48445,57445
47654,57445
47654,56654
48445,56654
" /> 
<circle cx="47050" cy="57050" r="395.315" /> 
<circle cx="46050" cy="57050" r="395.315" /> 
<circle cx="45050" cy="57050" r="395.315" /> 
<circle cx="44050" cy="57050" r="395.315" /> 
<circle cx="43050" cy="57050" r="395.315" /> 
<circle cx="42050" cy="57050" r="395.315" /> 
<circle cx="41050" cy="57050" r="395.315" /> 
<polyline style="fill-rule:evenodd;"
points="39445,56654
39445,57445
38654,57445
38654,56654
39445,56654
" /> 
<circle cx="38050" cy="57050" r="395.315" /> 
<circle cx="37050" cy="57050" r="395.315" /> 
<circle cx="36050" cy="57050" r="395.315" /> 
<circle cx="35050" cy="57050" r="395.315" /> 
<circle cx="34050" cy="57050" r="395.315" /> 
<circle cx="33050" cy="57050" r="395.315" /> 
<circle cx="32050" cy="57050" r="395.315" /> 
<polyline style="fill-rule:evenodd;"
points="55445,37654
55445,38445
54654,38445
54654,37654
55445,37654
" /> 
<circle cx="54050" cy="38050" r="395.315" /> 
<circle cx="53050" cy="38050" r="395.315" /> 
<circle cx="52050" cy="38050" r="395.315" /> 
<circle cx="51050" cy="38050" r="395.315" /> 
<circle cx="50050" cy="38050" r="395.315" /> 
<circle cx="49050" cy="38050" r="395.315" /> 
<circle cx="48050" cy="38050" r="395.315" /> 
<circle cx="27050" cy="38050" r="710.236" /> 
<circle cx="47050" cy="55050" r="710.236" /> 
<polyline style="fill-rule:evenodd;"
points="37845,37654
37845,38445
37054,38445
37054,37654
37845,37654
" /> 
<circle cx="36450" cy="38050" r="395.315" /> 
<circle cx="35450" cy="38050" r="395.315" /> 
<circle cx="34450" cy="38050" r="395.315" /> 
<circle cx="33450" cy="38050" r="395.315" /> 
<circle cx="32450" cy="38050" r="395.315" /> 
<circle cx="31450" cy="38050" r="395.315" /> 
<circle cx="30450" cy="38050" r="395.315" /> 
<polyline style="fill-rule:evenodd;"
points="46445,37654
46445,38445
45654,38445
45654,37654
46445,37654
" /> 
<circle cx="45050" cy="38050" r="395.315" /> 
<circle cx="44050" cy="38050" r="395.315" /> 
<circle cx="43050" cy="38050" r="395.315" /> 
<circle cx="42050" cy="38050" r="395.315" /> 
<circle cx="41050" cy="38050" r="395.315" /> 
<circle cx="40050" cy="38050" r="395.315" /> 
<circle cx="39050" cy="38050" r="395.315" /> 
<polyline style="fill-rule:evenodd;"
points="29355,55355
28644,55355
28644,54644
29355,54644
29355,55355
" /> 
<polyline style="fill-rule:evenodd;"
points="28355,55355
27644,55355
27644,54644
28355,54644
28355,55355
" /> 
<polyline style="fill-rule:evenodd;"
points="30355,55355
29644,55355
29644,54644
30355,54644
30355,55355
" /> 
<polyline style="fill-rule:evenodd;"
points="28355,58355
27644,58355
27644,57644
28355,57644
28355,58355
" /> 
<polyline style="fill-rule:evenodd;"
points="30355,58355
29644,58355
29644,57644
30355,57644
30355,58355
" /> 
</g>
<g style="fill:#000000; fill-opacity:1.0; 
stroke:#000000; stroke-width:196.85; stroke-opacity:1; 
stroke-linecap:round; stroke-linejoin:round;">
<path d="M41050 57050
L41050 56950
" />
<path d="M38500 54400
L38500 54000
" />
<path d="M41050 56950
L38500 54400
" />
<path d="M39500 54000
L39500 54300
" />
<path d="M42050 56850
L42050 57050
" />
<path d="M39500 54300
L42050 56850
" />
<path d="M50000 53000
L50000 53800
" />
<path d="M52050 55850
L52050 57050
" />
<path d="M50000 53800
L52050 55850
" />
<path d="M51000 53000
L51000 53900
" />
<path d="M53050 55950
L53050 57050
" />
<path d="M51000 53900
L53050 55950
" />
<path d="M52000 53000
L52000 54000
" />
<path d="M54050 56050
L54050 57050
" />
<path d="M52000 54000
L54050 56050
" />
<path d="M53000 53000
L53000 54000
" />
<path d="M55050 56050
L55050 57050
" />
<path d="M53000 54000
L55050 56050
" />
<path d="M54000 53000
L54000 54000
" />
<path d="M56050 56050
L56050 57050
" />
<path d="M54000 54000
L56050 56050
" />
<path d="M55000 53000
L55000 53900
" />
<path d="M57050 55950
L57050 57050
" />
<path d="M55000 53900
L57050 55950
" />
<path d="M40500 54000
L40500 54300
" />
<path d="M43050 56850
L43050 57050
" />
<path d="M40500 54300
L43050 56850
" />
<path d="M41500 54000
L41500 54200
" />
<path d="M44050 56750
L44050 57050
" />
<path d="M41500 54200
L44050 56750
" />
<path d="M42500 54000
L42500 54200
" />
<path d="M45050 56750
L45050 57050
" />
<path d="M42500 54200
L45050 56750
" />
<path d="M43500 54000
L43500 54300
" />
<path d="M46050 56850
L46050 57050
" />
<path d="M43500 54300
L46050 56850
" />
<path d="M44500 54000
L44500 54200
" />
<path d="M47050 56750
L47050 57050
" />
<path d="M44500 54200
L47050 56750
" />
<path d="M45500 54000
L47700 54000
" />
<path d="M48400 56700
L48050 57050
" />
<path d="M48400 54700
L48400 56700
" />
<path d="M47700 54000
L48400 54700
" />
<path d="M50050 57050
L50050 55550
" />
<path d="M48000 53500
L48000 53000
" />
<path d="M50050 55550
L48000 53500
" />
<path d="M49000 53000
L49000 53600
" />
<path d="M51050 55650
L51050 57050
" />
<path d="M49000 53600
L51050 55650
" />
<path d="M30000 41000
L30000 38900
" />
<path d="M30450 38450
L30450 38050
" />
<path d="M30000 38900
L30450 38450
" />
<path d="M36000 54000
L36000 54500
" />
<path d="M38050 56550
L38050 57050
" />
<path d="M36000 54500
L38050 56550
" />
<path d="M35000 54000
L35000 54600
" />
<path d="M37050 56650
L37050 57050
" />
<path d="M35000 54600
L37050 56650
" />
<path d="M31000 41000
L31000 38900
" />
<path d="M31450 38450
L31450 38050
" />
<path d="M31000 38900
L31450 38450
" />
<path d="M29000 55000
L29000 55600
" />
<path d="M29400 56000
L30000 56000
" />
<path d="M29000 55600
L29400 56000
" />
<path d="M30000 58000
L30000 56000
" />
<path d="M30000 56000
L30000 55000
" />
<path d="M30000 58000
L30000 58800
" />
<path d="M37050 58450
L37050 58050
" />
<path d="M36500 59000
L37050 58450
" />
<path d="M30200 59000
L36500 59000
" />
<path d="M30000 58800
L30200 59000
" />
<path d="M34000 54000
L34000 54600
" />
<path d="M36050 56650
L36050 57050
" />
<path d="M34000 54600
L36050 56650
" />
<path d="M35000 41000
L35000 39000
" />
<path d="M35450 38550
L35450 38050
" />
<path d="M35000 39000
L35450 38550
" />
<path d="M34000 41000
L34000 39100
" />
<path d="M34450 38650
L34450 38050
" />
<path d="M34000 39100
L34450 38650
" />
<path d="M33000 41000
L33000 39100
" />
<path d="M33450 38650
L33450 38050
" />
<path d="M33000 39100
L33450 38650
" />
<path d="M32000 41000
L32000 39100
" />
<path d="M32450 38650
L32450 38050
" />
<path d="M32000 39100
L32450 38650
" />
<path d="M55000 42000
L55000 38100
" />
<path d="M55000 38100
L55050 38050
" />
<path d="M54000 42000
L54000 38100
" />
<path d="M54000 38100
L54050 38050
" />
<path d="M53000 42000
L53000 38100
" />
<path d="M53000 38100
L53050 38050
" />
<path d="M52000 42000
L52000 38100
" />
<path d="M52000 38100
L52050 38050
" />
<path d="M41000 41000
L41000 38100
" />
<path d="M41000 38100
L41050 38050
" />
<path d="M44000 41000
L44000 38100
" />
<path d="M44000 38100
L44050 38050
" />
<path d="M43000 41000
L43000 38100
" />
<path d="M43000 38100
L43050 38050
" />
<path d="M42000 41000
L42000 38100
" />
<path d="M42000 38100
L42050 38050
" />
<path d="M51000 42000
L51000 38100
" />
<path d="M51000 38100
L51050 38050
" />
<path d="M50000 42000
L50000 38100
" />
<path d="M50000 38100
L50050 38050
" />
<path d="M40000 41000
L40000 38100
" />
<path d="M40000 38100
L40050 38050
" />
<path d="M39000 41000
L39000 38100
" />
<path d="M39000 38100
L39050 38050
" />
<path d="M37000 41000
L37000 39200
" />
<path d="M37450 38750
L37450 38050
" />
<path d="M37000 39200
L37450 38750
" />
<path d="M36000 41000
L36000 39200
" />
<path d="M36450 38750
L36450 38050
" />
<path d="M36000 39200
L36450 38750
" />
<path d="M49000 42000
L49000 38100
" />
<path d="M49000 38100
L49050 38050
" />
<path d="M48000 42000
L48000 38100
" />
<path d="M48000 38100
L48050 38050
" />
<path d="M34050 57050
L34050 56750
" />
<path d="M32000 54700
L32000 54000
" />
<path d="M34050 56750
L32000 54700
" />
<path d="M28000 55000
L28000 54500
" />
<path d="M28000 54500
L28500 54000
" />
<path d="M28500 54000
L32000 54000
" />
<path d="M28000 55000
L28000 58000
" />
<path d="M46000 41000
L46000 38100
" />
<path d="M46000 38100
L46050 38050
" />
<path d="M45000 41000
L45000 38100
" />
<path d="M45000 38100
L45050 38050
" />
<path d="M33000 54000
L33000 54600
" />
<path d="M35050 56650
L35050 57050
" />
<path d="M33000 54600
L35050 56650
" />
<path d="M37000 54000
L37000 54400
" />
<path d="M39050 56450
L39050 57050
" />
<path d="M37000 54400
L39050 56450
" />
</g>
<g style="fill:#FFFFFF; fill-opacity:1.0; 
stroke:#FFFFFF; stroke-width:39.3701; stroke-opacity:1; 
stroke-linecap:round; stroke-linejoin:round;">
<circle cx="28000" cy="53000" r="177.165" /> 
<circle cx="29000" cy="53000" r="177.165" /> 
<circle cx="30000" cy="53000" r="177.165" /> 
<circle cx="31000" cy="53000" r="177.165" /> 
<circle cx="41000" cy="53000" r="177.165" /> 
<circle cx="42000" cy="53000" r="177.165" /> 
<circle cx="43000" cy="53000" r="177.165" /> 
<circle cx="40000" cy="53000" r="177.165" /> 
<circle cx="39000" cy="53000" r="177.165" /> 
<circle cx="38000" cy="53000" r="177.165" /> 
<circle cx="32000" cy="53000" r="177.165" /> 
<circle cx="33000" cy="53000" r="177.165" /> 
<circle cx="34000" cy="53000" r="177.165" /> 
<circle cx="37000" cy="53000" r="177.165" /> 
<circle cx="36000" cy="53000" r="177.165" /> 
<circle cx="35000" cy="53000" r="177.165" /> 
<circle cx="46000" cy="53000" r="177.165" /> 
<circle cx="45000" cy="53000" r="177.165" /> 
<circle cx="44000" cy="53000" r="177.165" /> 
<circle cx="46000" cy="42000" r="177.165" /> 
<circle cx="28000" cy="42000" r="177.165" /> 
<circle cx="29000" cy="42000" r="177.165" /> 
<circle cx="30000" cy="42000" r="177.165" /> 
<circle cx="31000" cy="42000" r="177.165" /> 
<circle cx="41000" cy="42000" r="177.165" /> 
<circle cx="42000" cy="42000" r="177.165" /> 
<circle cx="43000" cy="42000" r="177.165" /> 
<circle cx="40000" cy="42000" r="177.165" /> 
<circle cx="39000" cy="42000" r="177.165" /> 
<circle cx="38000" cy="42000" r="177.165" /> 
<circle cx="32000" cy="42000" r="177.165" /> 
<circle cx="33000" cy="42000" r="177.165" /> 
<circle cx="34000" cy="42000" r="177.165" /> 
<circle cx="37000" cy="42000" r="177.165" /> 
<circle cx="36000" cy="42000" r="177.165" /> 
<circle cx="35000" cy="42000" r="177.165" /> 
<circle cx="45000" cy="42000" r="177.165" /> 
<circle cx="44000" cy="42000" r="177.165" /> 
<circle cx="53000" cy="43000" r="177.165" /> 
<circle cx="54000" cy="43000" r="177.165" /> 
<circle cx="55000" cy="43000" r="177.165" /> 
<circle cx="52000" cy="43000" r="177.165" /> 
<circle cx="51000" cy="43000" r="177.165" /> 
<circle cx="50000" cy="43000" r="177.165" /> 
<circle cx="49000" cy="43000" r="177.165" /> 
<circle cx="53000" cy="45000" r="177.165" /> 
<circle cx="54000" cy="45000" r="177.165" /> 
<circle cx="55000" cy="45000" r="177.165" /> 
<circle cx="52000" cy="45000" r="177.165" /> 
<circle cx="51000" cy="45000" r="177.165" /> 
<circle cx="50000" cy="45000" r="177.165" /> 
<circle cx="49000" cy="45000" r="177.165" /> 
<circle cx="49000" cy="44000" r="177.165" /> 
<circle cx="50000" cy="44000" r="177.165" /> 
<circle cx="51000" cy="44000" r="177.165" /> 
<circle cx="52000" cy="44000" r="177.165" /> 
<circle cx="55000" cy="44000" r="177.165" /> 
<circle cx="54000" cy="44000" r="177.165" /> 
<circle cx="53000" cy="44000" r="177.165" /> 
<circle cx="28000" cy="44000" r="177.165" /> 
<circle cx="29000" cy="44000" r="177.165" /> 
<circle cx="30000" cy="44000" r="177.165" /> 
<circle cx="31000" cy="44000" r="177.165" /> 
<circle cx="41000" cy="44000" r="177.165" /> 
<circle cx="42000" cy="44000" r="177.165" /> 
<circle cx="43000" cy="44000" r="177.165" /> 
<circle cx="40000" cy="44000" r="177.165" /> 
<circle cx="39000" cy="44000" r="177.165" /> 
<circle cx="38000" cy="44000" r="177.165" /> 
<circle cx="32000" cy="44000" r="177.165" /> 
<circle cx="33000" cy="44000" r="177.165" /> 
<circle cx="34000" cy="44000" r="177.165" /> 
<circle cx="37000" cy="44000" r="177.165" /> 
<circle cx="36000" cy="44000" r="177.165" /> 
<circle cx="35000" cy="44000" r="177.165" /> 
<circle cx="45000" cy="44000" r="177.165" /> 
<circle cx="44000" cy="44000" r="177.165" /> 
<circle cx="44000" cy="43000" r="177.165" /> 
<circle cx="45000" cy="43000" r="177.165" /> 
<circle cx="35000" cy="43000" r="177.165" /> 
<circle cx="36000" cy="43000" r="177.165" /> 
<circle cx="37000" cy="43000" r="177.165" /> 
<circle cx="34000" cy="43000" r="177.165" /> 
<circle cx="33000" cy="43000" r="177.165" /> 
<circle cx="32000" cy="43000" r="177.165" /> 
<circle cx="38000" cy="43000" r="177.165" /> 
<circle cx="39000" cy="43000" r="177.165" /> 
<circle cx="40000" cy="43000" r="177.165" /> 
<circle cx="43000" cy="43000" r="177.165" /> 
<circle cx="42000" cy="43000" r="177.165" /> 
<circle cx="41000" cy="43000" r="177.165" /> 
<circle cx="31000" cy="43000" r="177.165" /> 
<circle cx="30000" cy="43000" r="177.165" /> 
<circle cx="29000" cy="43000" r="177.165" /> 
<circle cx="28000" cy="43000" r="177.165" /> 
<circle cx="28000" cy="45000" r="177.165" /> 
<circle cx="29000" cy="45000" r="177.165" /> 
<circle cx="30000" cy="45000" r="177.165" /> 
<circle cx="31000" cy="45000" r="177.165" /> 
<circle cx="41000" cy="45000" r="177.165" /> 
<circle cx="42000" cy="45000" r="177.165" /> 
<circle cx="43000" cy="45000" r="177.165" /> 
<circle cx="40000" cy="45000" r="177.165" /> 
<circle cx="39000" cy="45000" r="177.165" /> 
<circle cx="38000" cy="45000" r="177.165" /> 
<circle cx="32000" cy="45000" r="177.165" /> 
<circle cx="33000" cy="45000" r="177.165" /> 
<circle cx="34000" cy="45000" r="177.165" /> 
<circle cx="37000" cy="45000" r="177.165" /> 
<circle cx="36000" cy="45000" r="177.165" /> 
<circle cx="35000" cy="45000" r="177.165" /> 
<circle cx="45000" cy="45000" r="177.165" /> 
<circle cx="44000" cy="45000" r="177.165" /> 
<circle cx="53000" cy="49000" r="177.165" /> 
<circle cx="54000" cy="49000" r="177.165" /> 
<circle cx="55000" cy="49000" r="177.165" /> 
<circle cx="52000" cy="49000" r="177.165" /> 
<circle cx="51000" cy="49000" r="177.165" /> 
<circle cx="50000" cy="49000" r="177.165" /> 
<circle cx="44000" cy="49000" r="177.165" /> 
<circle cx="45000" cy="49000" r="177.165" /> 
<circle cx="46000" cy="49000" r="177.165" /> 
<circle cx="49000" cy="49000" r="177.165" /> 
<circle cx="48000" cy="49000" r="177.165" /> 
<circle cx="47000" cy="49000" r="177.165" /> 
<circle cx="35000" cy="49000" r="177.165" /> 
<circle cx="36000" cy="49000" r="177.165" /> 
<circle cx="37000" cy="49000" r="177.165" /> 
<circle cx="34000" cy="49000" r="177.165" /> 
<circle cx="33000" cy="49000" r="177.165" /> 
<circle cx="32000" cy="49000" r="177.165" /> 
<circle cx="38000" cy="49000" r="177.165" /> 
<circle cx="39000" cy="49000" r="177.165" /> 
<circle cx="40000" cy="49000" r="177.165" /> 
<circle cx="43000" cy="49000" r="177.165" /> 
<circle cx="42000" cy="49000" r="177.165" /> 
<circle cx="41000" cy="49000" r="177.165" /> 
<circle cx="31000" cy="49000" r="177.165" /> 
<circle cx="30000" cy="49000" r="177.165" /> 
<circle cx="29000" cy="49000" r="177.165" /> 
<circle cx="28000" cy="49000" r="177.165" /> 
<circle cx="28000" cy="48000" r="177.165" /> 
<circle cx="29000" cy="48000" r="177.165" /> 
<circle cx="30000" cy="48000" r="177.165" /> 
<circle cx="31000" cy="48000" r="177.165" /> 
<circle cx="41000" cy="48000" r="177.165" /> 
<circle cx="42000" cy="48000" r="177.165" /> 
<circle cx="43000" cy="48000" r="177.165" /> 
<circle cx="40000" cy="48000" r="177.165" /> 
<circle cx="39000" cy="48000" r="177.165" /> 
<circle cx="38000" cy="48000" r="177.165" /> 
<circle cx="32000" cy="48000" r="177.165" /> 
<circle cx="33000" cy="48000" r="177.165" /> 
<circle cx="34000" cy="48000" r="177.165" /> 
<circle cx="37000" cy="48000" r="177.165" /> 
<circle cx="36000" cy="48000" r="177.165" /> 
<circle cx="35000" cy="48000" r="177.165" /> 
<circle cx="47000" cy="48000" r="177.165" /> 
<circle cx="48000" cy="48000" r="177.165" /> 
<circle cx="49000" cy="48000" r="177.165" /> 
<circle cx="46000" cy="48000" r="177.165" /> 
<circle cx="45000" cy="48000" r="177.165" /> 
<circle cx="44000" cy="48000" r="177.165" /> 
<circle cx="50000" cy="48000" r="177.165" /> 
<circle cx="51000" cy="48000" r="177.165" /> 
<circle cx="52000" cy="48000" r="177.165" /> 
<circle cx="55000" cy="48000" r="177.165" /> 
<circle cx="54000" cy="48000" r="177.165" /> 
<circle cx="53000" cy="48000" r="177.165" /> 
<circle cx="53000" cy="46000" r="177.165" /> 
<circle cx="54000" cy="46000" r="177.165" /> 
<circle cx="55000" cy="46000" r="177.165" /> 
<circle cx="52000" cy="46000" r="177.165" /> 
<circle cx="51000" cy="46000" r="177.165" /> 
<circle cx="50000" cy="46000" r="177.165" /> 
<circle cx="44000" cy="46000" r="177.165" /> 
<circle cx="45000" cy="46000" r="177.165" /> 
<circle cx="46000" cy="46000" r="177.165" /> 
<circle cx="49000" cy="46000" r="177.165" /> 
<circle cx="48000" cy="46000" r="177.165" /> 
<circle cx="47000" cy="46000" r="177.165" /> 
<circle cx="35000" cy="46000" r="177.165" /> 
<circle cx="36000" cy="46000" r="177.165" /> 
<circle cx="37000" cy="46000" r="177.165" /> 
<circle cx="34000" cy="46000" r="177.165" /> 
<circle cx="33000" cy="46000" r="177.165" /> 
<circle cx="32000" cy="46000" r="177.165" /> 
<circle cx="38000" cy="46000" r="177.165" /> 
<circle cx="39000" cy="46000" r="177.165" /> 
<circle cx="40000" cy="46000" r="177.165" /> 
<circle cx="43000" cy="46000" r="177.165" /> 
<circle cx="42000" cy="46000" r="177.165" /> 
<circle cx="41000" cy="46000" r="177.165" /> 
<circle cx="31000" cy="46000" r="177.165" /> 
<circle cx="30000" cy="46000" r="177.165" /> 
<circle cx="29000" cy="46000" r="177.165" /> 
<circle cx="28000" cy="46000" r="177.165" /> 
<circle cx="28000" cy="47000" r="177.165" /> 
<circle cx="29000" cy="47000" r="177.165" /> 
<circle cx="30000" cy="47000" r="177.165" /> 
<circle cx="31000" cy="47000" r="177.165" /> 
<circle cx="41000" cy="47000" r="177.165" /> 
<circle cx="42000" cy="47000" r="177.165" /> 
<circle cx="43000" cy="47000" r="177.165" /> 
<circle cx="40000" cy="47000" r="177.165" /> 
<circle cx="39000" cy="47000" r="177.165" /> 
<circle cx="38000" cy="47000" r="177.165" /> 
<circle cx="32000" cy="47000" r="177.165" /> 
<circle cx="33000" cy="47000" r="177.165" /> 
<circle cx="34000" cy="47000" r="177.165" /> 
<circle cx="37000" cy="47000" r="177.165" /> 
<circle cx="36000" cy="47000" r="177.165" /> 
<circle cx="35000" cy="47000" r="177.165" /> 
<circle cx="47000" cy="47000" r="177.165" /> 
<circle cx="48000" cy="47000" r="177.165" /> 
<circle cx="49000" cy="47000" r="177.165" /> 
<circle cx="46000" cy="47000" r="177.165" /> 
<circle cx="45000" cy="47000" r="177.165" /> 
<circle cx="44000" cy="47000" r="177.165" /> 
<circle cx="50000" cy="47000" r="177.165" /> 
<circle cx="51000" cy="47000" r="177.165" /> 
<circle cx="52000" cy="47000" r="177.165" /> 
<circle cx="55000" cy="47000" r="177.165" /> 
<circle cx="54000" cy="47000" r="177.165" /> 
<circle cx="53000" cy="47000" r="177.165" /> 
<circle cx="53000" cy="51000" r="177.165" /> 
<circle cx="54000" cy="51000" r="177.165" /> 
<circle cx="55000" cy="51000" r="177.165" /> 
<circle cx="52000" cy="51000" r="177.165" /> 
<circle cx="51000" cy="51000" r="177.165" /> 
<circle cx="50000" cy="51000" r="177.165" /> 
<circle cx="44000" cy="51000" r="177.165" /> 
<circle cx="45000" cy="51000" r="177.165" /> 
<circle cx="46000" cy="51000" r="177.165" /> 
<circle cx="49000" cy="51000" r="177.165" /> 
<circle cx="48000" cy="51000" r="177.165" /> 
<circle cx="47000" cy="51000" r="177.165" /> 
<circle cx="35000" cy="51000" r="177.165" /> 
<circle cx="36000" cy="51000" r="177.165" /> 
<circle cx="37000" cy="51000" r="177.165" /> 
<circle cx="34000" cy="51000" r="177.165" /> 
<circle cx="33000" cy="51000" r="177.165" /> 
<circle cx="32000" cy="51000" r="177.165" /> 
<circle cx="38000" cy="51000" r="177.165" /> 
<circle cx="39000" cy="51000" r="177.165" /> 
<circle cx="40000" cy="51000" r="177.165" /> 
<circle cx="43000" cy="51000" r="177.165" /> 
<circle cx="42000" cy="51000" r="177.165" /> 
<circle cx="41000" cy="51000" r="177.165" /> 
<circle cx="31000" cy="51000" r="177.165" /> 
<circle cx="30000" cy="51000" r="177.165" /> 
<circle cx="29000" cy="51000" r="177.165" /> 
<circle cx="28000" cy="51000" r="177.165" /> 
<circle cx="28000" cy="50000" r="177.165" /> 
<circle cx="29000" cy="50000" r="177.165" /> 
<circle cx="30000" cy="50000" r="177.165" /> 
<circle cx="31000" cy="50000" r="177.165" /> 
<circle cx="41000" cy="50000" r="177.165" /> 
<circle cx="42000" cy="50000" r="177.165" /> 
<circle cx="43000" cy="50000" r="177.165" /> 
<circle cx="40000" cy="50000" r="177.165" /> 
<circle cx="39000" cy="50000" r="177.165" /> 
<circle cx="38000" cy="50000" r="177.165" /> 
<circle cx="32000" cy="50000" r="177.165" /> 
<circle cx="33000" cy="50000" r="177.165" /> 
<circle cx="34000" cy="50000" r="177.165" /> 
<circle cx="37000" cy="50000" r="177.165" /> 
<circle cx="36000" cy="50000" r="177.165" /> 
<circle cx="35000" cy="50000" r="177.165" /> 
<circle cx="47000" cy="50000" r="177.165" /> 
<circle cx="48000" cy="50000" r="177.165" /> 
<circle cx="49000" cy="50000" r="177.165" /> 
<circle cx="46000" cy="50000" r="177.165" /> 
<circle cx="45000" cy="50000" r="177.165" /> 
<circle cx="44000" cy="50000" r="177.165" /> 
<circle cx="50000" cy="50000" r="177.165" /> 
<circle cx="51000" cy="50000" r="177.165" /> 
<circle cx="52000" cy="50000" r="177.165" /> 
<circle cx="55000" cy="50000" r="177.165" /> 
<circle cx="54000" cy="50000" r="177.165" /> 
<circle cx="53000" cy="50000" r="177.165" /> 
<circle cx="53000" cy="52000" r="177.165" /> 
<circle cx="54000" cy="52000" r="177.165" /> 
<circle cx="55000" cy="52000" r="177.165" /> 
<circle cx="52000" cy="52000" r="177.165" /> 
<circle cx="51000" cy="52000" r="177.165" /> 
<circle cx="50000" cy="52000" r="177.165" /> 
<circle cx="44000" cy="52000" r="177.165" /> 
<circle cx="45000" cy="52000" r="177.165" /> 
<circle cx="46000" cy="52000" r="177.165" /> 
<circle cx="49000" cy="52000" r="177.165" /> 
<circle cx="48000" cy="52000" r="177.165" /> 
<circle cx="47000" cy="52000" r="177.165" /> 
<circle cx="35000" cy="52000" r="177.165" /> 
<circle cx="36000" cy="52000" r="177.165" /> 
<circle cx="37000" cy="52000" r="177.165" /> 
<circle cx="34000" cy="52000" r="177.165" /> 
<circle cx="33000" cy="52000" r="177.165" /> 
<circle cx="32000" cy="52000" r="177.165" /> 
<circle cx="38000" cy="52000" r="177.165" /> 
<circle cx="39000" cy="52000" r="177.165" /> 
<circle cx="40000" cy="52000" r="177.165" /> 
<circle cx="43000" cy="52000" r="177.165" /> 
<circle cx="42000" cy="52000" r="177.165" /> 
<circle cx="41000" cy="52000" r="177.165" /> 
<circle cx="31000" cy="52000" r="177.165" /> 
<circle cx="30000" cy="52000" r="177.165" /> 
<circle cx="29000" cy="52000" r="177.165" /> 
<circle cx="28000" cy="52000" r="177.165" /> 
<circle cx="30000" cy="41000" r="177.165" /> 
<circle cx="55000" cy="42000" r="177.165" /> 
<circle cx="54000" cy="42000" r="177.165" /> 
<circle cx="52000" cy="42000" r="177.165" /> 
<circle cx="53000" cy="42000" r="177.165" /> 
<circle cx="49000" cy="42000" r="177.165" /> 
<circle cx="48000" cy="42000" r="177.165" /> 
<circle cx="50000" cy="42000" r="177.165" /> 
<circle cx="51000" cy="42000" r="177.165" /> 
<circle cx="42000" cy="41000" r="177.165" /> 
<circle cx="41000" cy="41000" r="177.165" /> 
<circle cx="39000" cy="41000" r="177.165" /> 
<circle cx="40000" cy="41000" r="177.165" /> 
<circle cx="44000" cy="41000" r="177.165" /> 
<circle cx="43000" cy="41000" r="177.165" /> 
<circle cx="45000" cy="41000" r="177.165" /> 
<circle cx="46000" cy="41000" r="177.165" /> 
<circle cx="37000" cy="41000" r="177.165" /> 
<circle cx="36000" cy="41000" r="177.165" /> 
<circle cx="34000" cy="41000" r="177.165" /> 
<circle cx="35000" cy="41000" r="177.165" /> 
<circle cx="31000" cy="41000" r="177.165" /> 
<circle cx="32000" cy="41000" r="177.165" /> 
<circle cx="33000" cy="41000" r="177.165" /> 
<circle cx="33000" cy="54000" r="177.165" /> 
<circle cx="32000" cy="54000" r="177.165" /> 
<circle cx="35000" cy="54000" r="177.165" /> 
<circle cx="34000" cy="54000" r="177.165" /> 
<circle cx="36000" cy="54000" r="177.165" /> 
<circle cx="37000" cy="54000" r="177.165" /> 
<circle cx="45500" cy="54000" r="177.165" /> 
<circle cx="44500" cy="54000" r="177.165" /> 
<circle cx="42500" cy="54000" r="177.165" /> 
<circle cx="43500" cy="54000" r="177.165" /> 
<circle cx="39500" cy="54000" r="177.165" /> 
<circle cx="38500" cy="54000" r="177.165" /> 
<circle cx="40500" cy="54000" r="177.165" /> 
<circle cx="41500" cy="54000" r="177.165" /> 
<circle cx="51000" cy="53000" r="177.165" /> 
<circle cx="50000" cy="53000" r="177.165" /> 
<circle cx="48000" cy="53000" r="177.165" /> 
<circle cx="49000" cy="53000" r="177.165" /> 
<circle cx="53000" cy="53000" r="177.165" /> 
<circle cx="52000" cy="53000" r="177.165" /> 
<circle cx="54000" cy="53000" r="177.165" /> 
<circle cx="55000" cy="53000" r="177.165" /> 
<circle cx="47050" cy="44050" r="610.236" /> 
<circle cx="39050" cy="58050" r="177.315" /> 
<circle cx="38050" cy="58050" r="177.315" /> 
<circle cx="37050" cy="58050" r="177.315" /> 
<circle cx="36050" cy="58050" r="177.315" /> 
<circle cx="35050" cy="58050" r="177.315" /> 
<circle cx="34050" cy="58050" r="177.315" /> 
<circle cx="33050" cy="58050" r="177.315" /> 
<circle cx="32050" cy="58050" r="177.315" /> 
<circle cx="48050" cy="58050" r="177.315" /> 
<circle cx="47050" cy="58050" r="177.315" /> 
<circle cx="46050" cy="58050" r="177.315" /> 
<circle cx="45050" cy="58050" r="177.315" /> 
<circle cx="44050" cy="58050" r="177.315" /> 
<circle cx="43050" cy="58050" r="177.315" /> 
<circle cx="42050" cy="58050" r="177.315" /> 
<circle cx="41050" cy="58050" r="177.315" /> 
<circle cx="57050" cy="58050" r="177.315" /> 
<circle cx="56050" cy="58050" r="177.315" /> 
<circle cx="55050" cy="58050" r="177.315" /> 
<circle cx="54050" cy="58050" r="177.315" /> 
<circle cx="53050" cy="58050" r="177.315" /> 
<circle cx="52050" cy="58050" r="177.315" /> 
<circle cx="51050" cy="58050" r="177.315" /> 
<circle cx="50050" cy="58050" r="177.315" /> 
<circle cx="46050" cy="37050" r="177.315" /> 
<circle cx="45050" cy="37050" r="177.315" /> 
<circle cx="44050" cy="37050" r="177.315" /> 
<circle cx="43050" cy="37050" r="177.315" /> 
<circle cx="42050" cy="37050" r="177.315" /> 
<circle cx="41050" cy="37050" r="177.315" /> 
<circle cx="40050" cy="37050" r="177.315" /> 
<circle cx="39050" cy="37050" r="177.315" /> 
<circle cx="37450" cy="37050" r="177.315" /> 
<circle cx="36450" cy="37050" r="177.315" /> 
<circle cx="35450" cy="37050" r="177.315" /> 
<circle cx="34450" cy="37050" r="177.315" /> 
<circle cx="33450" cy="37050" r="177.315" /> 
<circle cx="32450" cy="37050" r="177.315" /> 
<circle cx="31450" cy="37050" r="177.315" /> 
<circle cx="30450" cy="37050" r="177.315" /> 
<circle cx="55050" cy="37050" r="177.315" /> 
<circle cx="54050" cy="37050" r="177.315" /> 
<circle cx="53050" cy="37050" r="177.315" /> 
<circle cx="52050" cy="37050" r="177.315" /> 
<circle cx="51050" cy="37050" r="177.315" /> 
<circle cx="50050" cy="37050" r="177.315" /> 
<circle cx="49050" cy="37050" r="177.315" /> 
<circle cx="48050" cy="37050" r="177.315" /> 
<circle cx="57050" cy="57050" r="177.315" /> 
<circle cx="56050" cy="57050" r="177.315" /> 
<circle cx="55050" cy="57050" r="177.315" /> 
<circle cx="54050" cy="57050" r="177.315" /> 
<circle cx="53050" cy="57050" r="177.315" /> 
<circle cx="52050" cy="57050" r="177.315" /> 
<circle cx="51050" cy="57050" r="177.315" /> 
<circle cx="50050" cy="57050" r="177.315" /> 
<circle cx="48050" cy="57050" r="177.315" /> 
<circle cx="47050" cy="57050" r="177.315" /> 
<circle cx="46050" cy="57050" r="177.315" /> 
<circle cx="45050" cy="57050" r="177.315" /> 
<circle cx="44050" cy="57050" r="177.315" /> 
<circle cx="43050" cy="57050" r="177.315" /> 
<circle cx="42050" cy="57050" r="177.315" /> 
<circle cx="41050" cy="57050" r="177.315" /> 
<circle cx="39050" cy="57050" r="177.315" /> 
<circle cx="38050" cy="57050" r="177.315" /> 
<circle cx="37050" cy="57050" r="177.315" /> 
<circle cx="36050" cy="57050" r="177.315" /> 
<circle cx="35050" cy="57050" r="177.315" /> 
<circle cx="34050" cy="57050" r="177.315" /> 
<circle cx="33050" cy="57050" r="177.315" /> 
<circle cx="32050" cy="57050" r="177.315" /> 
<circle cx="55050" cy="38050" r="177.315" /> 
<circle cx="54050" cy="38050" r="177.315" /> 
<circle cx="53050" cy="38050" r="177.315" /> 
<circle cx="52050" cy="38050" r="177.315" /> 
<circle cx="51050" cy="38050" r="177.315" /> 
<circle cx="50050" cy="38050" r="177.315" /> 
<circle cx="49050" cy="38050" r="177.315" /> 
<circle cx="48050" cy="38050" r="177.315" /> 
<circle cx="27050" cy="38050" r="610.236" /> 
<circle cx="47050" cy="55050" r="610.236" /> 
<circle cx="37450" cy="38050" r="177.315" /> 
<circle cx="36450" cy="38050" r="177.315" /> 
<circle cx="35450" cy="38050" r="177.315" /> 
<circle cx="34450" cy="38050" r="177.315" /> 
<circle cx="33450" cy="38050" r="177.315" /> 
<circle cx="32450" cy="38050" r="177.315" /> 
<circle cx="31450" cy="38050" r="177.315" /> 
<circle cx="30450" cy="38050" r="177.315" /> 
<circle cx="46050" cy="38050" r="177.315" /> 
<circle cx="45050" cy="38050" r="177.315" /> 
<circle cx="44050" cy="38050" r="177.315" /> 
<circle cx="43050" cy="38050" r="177.315" /> 
<circle cx="42050" cy="38050" r="177.315" /> 
<circle cx="41050" cy="38050" r="177.315" /> 
<circle cx="40050" cy="38050" r="177.315" /> 
<circle cx="39050" cy="38050" r="177.315" /> 
</g> 
</svg>
